<svg width="77" height="46" xmlns="http://www.w3.org/2000/svg"><g fill="none" fill-rule="evenodd"><path fill-opacity=".01" fill="#F2F1F0" d="M0 0h77v46H0z"/><path d="M34.5 25.3c0 .5-.3.8-1 .8h-1.3v-1.7h1.3c.6 0 1 .3 1 .9zm1.6 4L34.6 27c.8-.3 1.3-1 1.3-1.9 0-1.2-.9-2-2.3-2h-2.8v6h1.4v-1.9h1l1.3 2h1.6zm-8.1-3c0 1-.8 1.8-1.8 1.8-1.1 0-1.9-.8-1.9-1.9 0-1 .8-1.9 1.9-1.9 1 0 1.8.9 1.8 2zm1.4 0c0-1.8-1.4-3.2-3.2-3.2a3.1 3.1 0 00-3.3 3.1c0 1.8 1.4 3.2 3.3 3.2 1.8 0 3.2-1.4 3.2-3.2zm-7.3 2l-.9-.9c-.5.5-.9.7-1.6.7-1 0-1.8-.8-1.8-1.9 0-1 .8-1.9 1.8-1.9.6 0 1 .3 1.6.7l.8-1c-.6-.5-1.2-1-2.4-1a3 3 0 00-3.1 3.2 3 3 0 003 3.2c1.2 0 2-.4 2.6-1.1zm-6.5 0l-.9-.9c-.5.5-.9.7-1.6.7-1 0-1.7-.8-1.7-1.9 0-1 .7-1.9 1.7-1.9.6 0 1.1.3 1.6.7l.8-1c-.5-.5-1.2-1-2.4-1a3 3 0 00-3.1 3.2 3 3 0 003 3.2c1.3 0 2-.4 2.6-1.1zM7 26.7H5.4l.8-2 .8 2zm2.4 2.6l-2.6-6.1H5.6l-2.6 6h1.4l.5-1.3h2.6l.5 1.4h1.4z" fill="#12283B"/><path d="M34.4 20.2l.7.1c1.3 0 2.5-.1 3.7-.4 1.6-.4 2-1 3-1.4 1.8-1 4.1-.9 4.1-1l-.7-.3c0-.2-.3-.4-.7-.4-.7 0-2 .9-3 .9H41a3.6 3.6 0 00-2.7-1.8 33.2 33.2 0 01-1.7-.3c-1.4-.2-1.8-.6-2-.6 0 .3.5 1.1 1.3 2 .5.6 1.3 1.4 1.3 1.8 0 .3-.4.5-1.4 1-1 .4-1.5.4-1.5.4" fill="#E29C16"/><path d="M75.2 27.5c0-1.1-.7-1.5-2-1.9-1-.2-1.3-.4-1.3-.8 0-.3.3-.5.8-.5s1 .2 1.6.6l.7-1c-.6-.5-1.4-.8-2.3-.8-1.2 0-2 .7-2 1.8 0 1.3.7 1.6 2 2 1 .2 1.1.3 1.1.7 0 .4-.3.6-.8.6-.7 0-1.3-.3-1.8-.8l-.8 1c.7.6 1.6 1 2.5 1 1.4 0 2.3-.7 2.3-2zm-5.7 1.8V28h-2.7v-4.8h-1.4v6h4.1zm-5.5 0V28h-3.3v-1.3h2.9v-1.2h-2.9v-1.2H64v-1.2h-4.6v6H64zm-6-4.9v-1.2h-5v1.2h2v4.9h1.2v-4.9h1.9zm-7 1.8c0 1-.8 2-1.9 2-1 0-1.8-1-1.8-2s.7-1.9 1.8-1.9 1.8.9 1.8 2zm1.3 0c0-1.7-1.3-3.1-3.2-3.1a3.1 3.1 0 00-3.2 3.1c0 1.8 1.3 3.2 3.2 3.2 1.9 0 3.2-1.4 3.2-3.2zm-7.9 3v-6h-1.3v2.4h-3v-2.4h-1.4v6H40v-2.4h3v2.5h1.4z" fill="#12283B"/></g></svg>