<svg xmlns="http://www.w3.org/2000/svg" width="76" height="45"><g fill="none"><path fill="#F2F1F0" fill-opacity=".01" d="M0 0h75.3v45H0z"/><path fill="#FFC82E" d="M10 14v6a5.3 5.3 0 005.3-5.2V14H10zm5.3 12.6v-6.1a5.3 5.3 0 00-5.3 5.2v.9h5.3z"/><path fill="#E16926" d="M8.2 26.6a6.4 6.4 0 010-12.6v12.6z"/><path fill="#5E5746" d="M24.4 25.4c-1.8 0-3.2-.6-4.2-1.6a5 5 0 01-1.4-3.6c0-1.4.5-2.7 1.5-3.7a5.8 5.8 0 014.5-1.8c1 0 2 .2 3 .6V17.7h-.1a.1.1 0 01-.1 0c-.5-1.4-1.6-2-3.2-2-1.2 0-2.2.4-3 1.3-.6.8-.9 1.8-.9 3 0 1 .3 2 1 2.9.8.9 1.8 1.3 3 1.3 1.3 0 2.4-.5 3.4-1.5h.1v1a.1.1 0 010 .1c-.9 1-2.1 1.6-3.6 1.6m24.1-4.7c0 1-.3 2-.9 2.6a3 3 0 01-2.3 1c-1 0-2-.4-2.6-1.1-.6-.8-1-1.8-1-3 0-1 .3-1.8 1-2.5a3 3 0 012.3-1c1 0 2 .4 2.6 1.2.6.7 1 1.7 1 2.8m-3.3-5a5 5 0 00-3.7 1.4c-.9 1-1.4 2.1-1.4 3.5s.5 2.5 1.4 3.4c.8.9 2 1.3 3.4 1.3a4.8 4.8 0 005-5c0-1.2-.4-2.4-1.3-3.3-.9-.9-2-1.3-3.4-1.3m8.3 1.2a.7.7 0 01.6-.7l.1-.1-.1-.2h-2.6c-.1 0-.2 0-.2.2l.1.1a.7.7 0 01.6.7v7.2c0 .4-.2.7-.6.7V25.2h2.7a.2.2 0 00.1-.1.1.1 0 000-.2h-.1a.7.7 0 01-.6-.7V17m10.4 6a.1.1 0 00-.2 0c-.8 1-1.8 1.4-2.9 1.4-1 0-2-.4-2.7-1.2a4 4 0 01-.9-2.7c0-1 .3-1.8 1-2.5.5-.8 1.4-1.2 2.5-1.2 1.4 0 2.3.6 2.8 1.7l.1.1a.2.2 0 00.2-.1v-2a.2.2 0 00-.1-.1 6 6 0 00-2.7-.6c-1.7 0-3 .5-4 1.6-1 1-1.4 2-1.4 3.4 0 1.3.5 2.3 1.3 3.2a5 5 0 003.7 1.5c1.4 0 2.5-.5 3.4-1.4a.2.2 0 000-.1V23a.2.2 0 00-.1-.1m8.7-.1h-.1v.1a1.8 1.8 0 01-1.8 1.2h-3V21h2.8c.6 0 .9.2 1 .5v.1h.1l.1-.1v-2h-.1c0-.1-.2 0-.2 0 0 .4-.4.6-1 .6h-2.7v-3.2H71c.6 0 1.1.4 1.2 1l.2.2.1-.2v-1.7a.2.2 0 00-.1-.2h-6.7l-.1.2v.1h.1c.4 0 .6.4.6.7v7.2c0 .4-.2.6-.5.7l-.2.2.2.1h6.6l.1-.1.4-2c0-.1 0-.2-.2-.2m-34.4-5.9c0-.3.3-.6.6-.7l.1-.1-.1-.2h-2.6c-.1 0-.2 0-.2.2l.1.1c.4.1.6.4.6.7v3h-5v-3a.7.7 0 01.5-.7l.2-.1-.2-.2h-2.6l-.2.2.2.1a.7.7 0 01.5.6v7.3c0 .4-.2.6-.5.7a.2.2 0 00-.2.2l.2.1h2.6l.2-.1-.1-.2h-.1a.7.7 0 01-.6-.7V21h5v3.5a.7.7 0 01-.5.4l-.1.2c0 .1 0 .2.2.2h2.5a.2.2 0 00.2-.2.2.2 0 000-.1h-.1a.7.7 0 01-.6-.8V17z"/><path fill="#E16926" d="M34.1 30.4v1.2h-.5v-2.9h.5V30h1.4v-1.2h.5v2.9h-.5v-1.2zm5.5-1.3c-.6 0-1 .5-1 1 0 .6.4 1 1 1s1-.4 1-1c0-.5-.5-1-1-1m0 2.5c-1 0-1.5-.6-1.5-1.4 0-.8.6-1.5 1.5-1.5.8 0 1.4.7 1.4 1.5s-.6 1.4-1.4 1.4m4.5 0h-.5v-2.4h-.9v-.5H45v.5h-.9zm5.2-2.4h-1.6v.7H49v.5h-1.4v.7h1.6v.5h-2.1v-2.9h2zm2.5-.5h.5v2.4h1.5v.5h-2zm4.8 1.2c.6.2 1 .4 1 .9s-.5.8-1.1.8c-.4 0-.9-.1-1.2-.4l.3-.4c.3.3.5.4.9.4.3 0 .5-.2.5-.4s-.1-.3-.6-.4c-.6-.1-1-.3-1-.9 0-.5.4-.8 1-.8.4 0 .7.1 1 .4l-.3.4c-.2-.2-.5-.3-.7-.3-.3 0-.5.1-.5.3 0 .2.2.3.7.4"/><path fill="#231F20" d="M58.7 29.2h.2V29h-.2v.1zm-.2-.2h.5V29.3a.3.3 0 01-.1 0l.2.3h-.2l-.1-.2h-.1v.2h-.2V29zm-.2.3v.2a.6.6 0 00.1.1l.2.1a.4.4 0 00.2 0 .4.4 0 00.1 0 .6.6 0 00.2 0l.1-.2a.4.4 0 000-.2.4.4 0 000-.2.6.6 0 00-.1-.1.4.4 0 00-.2-.1.4.4 0 00-.1 0 .4.4 0 00-.2 0h-.2a.4.4 0 000 .2.4.4 0 00-.1.2zm-.1 0a.5.5 0 01.1-.4.5.5 0 01.5-.2.5.5 0 01.4.2.5.5 0 01.1.4.5.5 0 01-.1.4.5.5 0 01-.4.2.5.5 0 01-.4-.2.5.5 0 01-.2-.4z"/></g></svg>