<svg width="77" height="46" xmlns="http://www.w3.org/2000/svg" xmlns:xlink="http://www.w3.org/1999/xlink"><defs><path id="a" d="M.2 3.4h3.3V.1H.2v3.3z"/><path id="c" d="M.2 3.4h3.3V.1H.2v3.3z"/><path id="e" d="M22.7.2H.3v9.6h22.4z"/><path id="g" d="M.2 3.4h3.3V.1H.2v3.3z"/><path id="i" d="M.2 3.4h3.3V.1H.2v3.3z"/><path id="k" d="M22.7.2H.3v9.6h22.4z"/></defs><g fill="none" fill-rule="evenodd"><path fill-opacity=".01" fill="#F2F1F0" d="M0 0h77v46H0z"/><path d="M17.6 25.4c0 2 .7 2.6 1.3 2.6.6 0 1.4-.4 1.4-2.6 0-.9 0-2.7-1.3-2.7-.9 0-1.4.8-1.4 2.7zm-1.2 0c0-2.3 1.2-3.3 2.6-3.3 1.1 0 2.5.7 2.5 3.2 0 2.2-1.1 3.4-2.6 3.4-1.4 0-2.5-1.1-2.5-3.3zm7.3-3.2l1 4.5 1.1-4.5h.7l1 4.5 1.1-4.5h.8l-1.6 6.4h-.7l-1-4.7-1.2 4.7h-.7l-1.6-6.4zm8 0l3 4.5v-4.5h.8v6.4h-.7l-3-4.6v4.6h-.7v-6.4zm9.2 0v.6h-2.3V25h2.2v.7h-2.2v2.3H41v.7h-3.4v-6.4zM9 23c-.2-.1-.6-.3-1-.3-1 0-1.7 1-1.7 2.7 0 1.8.8 2.6 1.6 2.6.5 0 .8-.2 1.1-.4l.4.6c-.4.2-1 .5-1.7.5C6 28.7 5 27.2 5 25.4 5 23.6 6 22 7.8 22c.4 0 1 0 1.4.3L9 23zm3.2-.2v2.3h.3c.5 0 1.4 0 1.4-1.2 0-.6-.2-.8-.4-1a1.3 1.3 0 00-.4 0H12zm.5-.6c.6 0 1 0 1.6.2.6.3.7 1 .7 1.3 0 .8-.4 1.5-1.5 1.8l2 3h-1.2l-1.8-2.8h-.3v2.9h-1v-6.4h1.5zm60.1.2a.6.6 0 01.2.5.6.6 0 01-.2.4.6.6 0 01-.4.2.6.6 0 01-.7-.6c0-.2 0-.3.2-.5a.6.6 0 01.5-.1l.4.1zm0 0a.7.7 0 00-.4-.2.7.7 0 00-.6.2.7.7 0 00-.2.5c0 .2 0 .4.2.5a.7.7 0 00.6.2c.2 0 .3 0 .5-.2a.7.7 0 00.2-.5.7.7 0 00-.2-.5zm-.3.5a.3.3 0 01-.2 0v-.3h.2V23zm-.4.4h.1V23H72.4v.2h.2a.2.2 0 000-.2.2.2 0 00-.2 0 .2.2 0 00.1-.1v-.2-.2a.6.6 0 00-.3 0H72v.8zm-3.1 2.5h1.3l-.6-2.1-.7 2.1zm1.2-3.6l2.2 6.4H71l-.7-2.1h-1.7l-.7 2h-.8l2.2-6.3h.7zm-23.3.6v2.3h.6c.6 0 1.2-.1 1.2-1.3 0-.5-.1-.8-.4-.9a1.2 1.2 0 00-.4 0h-1zm.6-.6c.8 0 1.3 0 1.7.3.6.3.7 1 .7 1.3 0 1-.6 2-2.2 2h-.8v2.8h-1v-6.4h1.6zm4.9 0v5.7h2.2v.7h-3.3v-6.4zm5 3.6h1.3l-.7-2.1-.7 2.1zm1.1-3.6l2.2 6.4h-1.1l-.7-2.1H57l-.6 2h-.8l2.1-6.3h.7zm7.6 0v.5l-3 5.2h3.2v.7h-4.5V28l3-5.2H62v-.6zM21.2 35v-1.5h-1.7V35h-.4v-3.2h.4v1.4h1.7v-1.4h.4V35z" fill="#990561"/><g transform="translate(22 31.614)"><mask id="b" fill="#fff"><use xlink:href="#a"/></mask><path d="M1.8 3.4C1 3.4.2 2.8.2 1.8S1 0 1.8 0c1 0 1.7.7 1.7 1.7s-.8 1.6-1.7 1.6m0-3C1.2.5.6 1 .6 1.9c0 .8.6 1.3 1.2 1.3.7 0 1.3-.5 1.3-1.3S2.5.5 1.8.5" fill="#990561" mask="url(#b)"/></g><path fill="#990561" d="M27 32.1V35h-.4v-2.8h-1v-.4H28v.3zm1.5 2.9v-3.2H30v.4H29v1h1v.3h-1v1.1h1.4v.4zm2.2 0v-3.2h.4v2.8h1.5v.4zm3 0a1.5 1.5 0 01-.8-.2v-.5c.2.2.5.3.8.3.4 0 .6-.2.6-.5s-.1-.5-.5-.6c-.6-.2-.9-.5-.9-1 0-.3.3-.7 1-.7l.6.1v.4a1.2 1.2 0 00-.6-.2c-.4 0-.6.2-.6.5 0 .2.2.4.5.5.6.2 1 .4 1 1 0 .5-.5.9-1.1.9m5 0l-.4-.4c-.2.3-.6.4-1 .4-.6 0-1-.4-1-.8s.3-.7.7-1c-.3-.2-.4-.4-.4-.7 0-.5.3-.8.7-.8.5 0 .9.3.9.8 0 .3-.2.6-.6.9l.7.7.4-.7.2.3a2.5 2.5 0 01-.3.7l.6.6h-.6zm-1.5-1.5c-.3.2-.5.4-.5.7 0 .3.3.5.6.5s.6-.1.8-.3l-.9-.9zm.1-1.4a.4.4 0 00-.4.4c0 .2.2.4.4.6.4-.2.5-.4.5-.6 0-.2-.2-.4-.5-.4zm5.3 2.9l-1-1.5H41V35h-.4v-3.2h1c.4 0 .9.3.9.9 0 .4-.3.7-.6.8l1 1.5h-.4zm-1-2.8H41v1h.5c.3 0 .6-.2.6-.5 0-.4-.3-.5-.6-.5zm1.7 2.8v-3.2H45v.4h-1.3v1h1v.3h-1v1.1h1.4v.4zm3 0l-.8-.2v-.5c.1.2.4.3.8.3s.6-.2.6-.5-.2-.5-.6-.6c-.5-.2-.8-.5-.8-1 0-.3.3-.7 1-.7l.6.1v.4a1.1 1.1 0 00-.7-.2c-.3 0-.5.2-.5.5 0 .2.1.4.5.5.6.2 1 .4 1 1 0 .5-.5.9-1.1.9"/><g transform="translate(47.5 31.614)"><mask id="d" fill="#fff"><use xlink:href="#c"/></mask><path d="M1.9 3.4C1 3.4.2 2.8.2 1.8S1 0 2 0c.8 0 1.6.7 1.6 1.7S2.7 3.4 2 3.4m0-3C1.2.5.6 1 .6 1.9.6 2.6 1.2 3 2 3 2.5 3 3 2.6 3 1.8S2.5.5 2 .5" fill="#990561" mask="url(#d)"/></g><path d="M53.5 35l-1-1.5H52V35h-.4v-3.2h1c.4 0 .8.3.8.9 0 .4-.2.7-.5.8l1 1.5h-.4zm-1-2.8H52v1h.4c.4 0 .6-.2.6-.5 0-.4-.2-.5-.6-.5zm2.6 0V35h-.4v-2.8h-1v-.4H56v.3zm2.2 2.8l-.9-.2v-.5c.2.2.5.3.9.3s.6-.2.6-.5-.2-.5-.6-.6c-.5-.2-.8-.5-.8-1 0-.3.3-.7 1-.7l.6.1v.4a1.1 1.1 0 00-.7-.2c-.3 0-.5.2-.5.5 0 .2.1.4.5.5.5.2.9.4.9 1 0 .5-.4.9-1 .9M39.5 12.2c-.4 1-2.5 0-3.5-.4a19.6 19.6 0 01-1.6-.9l.7 1h-1l1.6.8c1 .5 3.1 1.5 3.5.5.6-1.9 4.3.4 4.7.6l.3-1c-.4-.2-4.1-2.4-4.7-.6" fill="#990561"/><path d="M39 14c-.4 1-2.5 0-3.5-.5a21 21 0 01-1.6-.8l.7 1h-1l1.6.8c1 .5 3 1.5 3.4.4.7-1.8 4.4.5 4.8.7l.3-1c-.4-.2-4.1-2.5-4.8-.7" fill="#990561"/><path d="M38.4 15.7c-.4 1-2.4 0-3.5-.4a21.9 21.9 0 01-1.6-.9l.8 1h-1l1.6.8c1 .5 3 1.5 3.4.5.7-1.9 4.4.4 4.8.6l.2-1c-.3-.2-4-2.4-4.7-.6" fill="#990561"/><g transform="translate(27.1 9.174)"><mask id="f" fill="#fff"><use xlink:href="#e"/></mask><path d="M11.5.2C5.3.2.3 2.3.3 5c0 2.6 5 4.8 11.2 4.8 6.2 0 11.2-2.2 11.2-4.8 0-2.7-5-4.8-11.2-4.8m0 9.2c-5.5 0-10-2-10-4.4C1.5 2.5 6 .6 11.5.6s10 2 10 4.4c0 2.4-4.5 4.4-10 4.4" fill="#990561" mask="url(#f)"/></g><path d="M17.6 25.4c0 2 .7 2.6 1.3 2.6.6 0 1.4-.4 1.4-2.6 0-.9 0-2.7-1.3-2.7-.9 0-1.4.8-1.4 2.7zm-1.2 0c0-2.3 1.2-3.3 2.6-3.3 1.1 0 2.5.7 2.5 3.2 0 2.2-1.1 3.4-2.6 3.4-1.4 0-2.5-1.1-2.5-3.3zm7.3-3.2l1 4.5 1.1-4.5h.7l1 4.5 1.1-4.5h.8l-1.6 6.4h-.7l-1-4.7-1.2 4.7h-.7l-1.6-6.4zm8 0l3 4.5v-4.5h.8v6.4h-.7l-3-4.6v4.6h-.7v-6.4zm9.2 0v.6h-2.3V25h2.2v.7h-2.2v2.3H41v.7h-3.4v-6.4zM9 23c-.2-.1-.6-.3-1-.3-1 0-1.7 1-1.7 2.7 0 1.8.8 2.6 1.6 2.6.5 0 .8-.2 1.1-.4l.4.6c-.4.2-1 .5-1.7.5C6 28.7 5 27.2 5 25.4 5 23.6 6 22 7.8 22c.4 0 1 0 1.4.3L9 23zm3.2-.2v2.3h.3c.5 0 1.4 0 1.4-1.2 0-.6-.2-.8-.4-1a1.3 1.3 0 00-.4 0H12zm.5-.6c.6 0 1 0 1.6.2.6.3.7 1 .7 1.3 0 .8-.4 1.5-1.5 1.8l2 3h-1.2l-1.8-2.8h-.3v2.9h-1v-6.4h1.5zm60.1.2a.6.6 0 01.2.5.6.6 0 01-.2.4.6.6 0 01-.4.2.6.6 0 01-.7-.6c0-.2 0-.3.2-.5a.6.6 0 01.5-.1l.4.1zm0 0a.7.7 0 00-.4-.2.7.7 0 00-.6.2.7.7 0 00-.2.5c0 .2 0 .4.2.5a.7.7 0 00.6.2c.2 0 .3 0 .5-.2a.7.7 0 00.2-.5.7.7 0 00-.2-.5zm-.3.5a.3.3 0 01-.2 0v-.3h.2V23zm-.4.4h.1V23H72.4v.2h.2a.2.2 0 000-.2.2.2 0 00-.2 0 .2.2 0 00.1-.1v-.2-.2a.6.6 0 00-.3 0H72v.8zm-3.1 2.5h1.3l-.6-2.1-.7 2.1zm1.2-3.6l2.2 6.4H71l-.7-2.1h-1.7l-.7 2h-.8l2.2-6.3h.7zm-23.3.6v2.3h.6c.6 0 1.2-.1 1.2-1.3 0-.5-.1-.8-.4-.9a1.2 1.2 0 00-.4 0h-1zm.6-.6c.8 0 1.3 0 1.7.3.6.3.7 1 .7 1.3 0 1-.6 2-2.2 2h-.8v2.8h-1v-6.4h1.6zm4.9 0v5.7h2.2v.7h-3.3v-6.4zm5 3.6h1.3l-.7-2.1-.7 2.1zm1.1-3.6l2.2 6.4h-1.1l-.7-2.1H57l-.6 2h-.8l2.1-6.3h.7zm7.6 0v.5l-3 5.2h3.2v.7h-4.5V28l3-5.2H62v-.6zM21.2 35v-1.5h-1.7V35h-.4v-3.2h.4v1.4h1.7v-1.4h.4V35z" fill="#990561"/><g transform="translate(22 31.614)"><mask id="h" fill="#fff"><use xlink:href="#g"/></mask><path d="M1.8 3.4C1 3.4.2 2.8.2 1.8S1 0 1.8 0c1 0 1.7.7 1.7 1.7s-.8 1.6-1.7 1.6m0-3C1.2.5.6 1 .6 1.9c0 .8.6 1.3 1.2 1.3.7 0 1.3-.5 1.3-1.3S2.5.5 1.8.5" fill="#990561" mask="url(#h)"/></g><path fill="#990561" d="M27 32.1V35h-.4v-2.8h-1v-.4H28v.3zm1.5 2.9v-3.2H30v.4H29v1h1v.3h-1v1.1h1.4v.4zm2.2 0v-3.2h.4v2.8h1.5v.4zm3 0a1.5 1.5 0 01-.8-.2v-.5c.2.2.5.3.8.3.4 0 .6-.2.6-.5s-.1-.5-.5-.6c-.6-.2-.9-.5-.9-1 0-.3.3-.7 1-.7l.6.1v.4a1.2 1.2 0 00-.6-.2c-.4 0-.6.2-.6.5 0 .2.2.4.5.5.6.2 1 .4 1 1 0 .5-.5.9-1.1.9m5 0l-.4-.4c-.2.3-.6.4-1 .4-.6 0-1-.4-1-.8s.3-.7.7-1c-.3-.2-.4-.4-.4-.7 0-.5.3-.8.7-.8.5 0 .9.3.9.8 0 .3-.2.6-.6.9l.7.7.4-.7.2.3a2.5 2.5 0 01-.3.7l.6.6h-.6zm-1.5-1.5c-.3.2-.5.4-.5.7 0 .3.3.5.6.5s.6-.1.8-.3l-.9-.9zm.1-1.4a.4.4 0 00-.4.4c0 .2.2.4.4.6.4-.2.5-.4.5-.6 0-.2-.2-.4-.5-.4zm5.3 2.9l-1-1.5H41V35h-.4v-3.2h1c.4 0 .9.3.9.9 0 .4-.3.7-.6.8l1 1.5h-.4zm-1-2.8H41v1h.5c.3 0 .6-.2.6-.5 0-.4-.3-.5-.6-.5zm1.7 2.8v-3.2H45v.4h-1.3v1h1v.3h-1v1.1h1.4v.4zm3 0l-.8-.2v-.5c.1.2.4.3.8.3s.6-.2.6-.5-.2-.5-.6-.6c-.5-.2-.8-.5-.8-1 0-.3.3-.7 1-.7l.6.1v.4a1.1 1.1 0 00-.7-.2c-.3 0-.5.2-.5.5 0 .2.1.4.5.5.6.2 1 .4 1 1 0 .5-.5.9-1.1.9"/><g transform="translate(47.5 31.614)"><mask id="j" fill="#fff"><use xlink:href="#i"/></mask><path d="M1.9 3.4C1 3.4.2 2.8.2 1.8S1 0 2 0c.8 0 1.6.7 1.6 1.7S2.7 3.4 2 3.4m0-3C1.2.5.6 1 .6 1.9.6 2.6 1.2 3 2 3 2.5 3 3 2.6 3 1.8S2.5.5 2 .5" fill="#990561" mask="url(#j)"/></g><path d="M53.5 35l-1-1.5H52V35h-.4v-3.2h1c.4 0 .8.3.8.9 0 .4-.2.7-.5.8l1 1.5h-.4zm-1-2.8H52v1h.4c.4 0 .6-.2.6-.5 0-.4-.2-.5-.6-.5zm2.6 0V35h-.4v-2.8h-1v-.4H56v.3zm2.2 2.8l-.9-.2v-.5c.2.2.5.3.9.3s.6-.2.6-.5-.2-.5-.6-.6c-.5-.2-.8-.5-.8-1 0-.3.3-.7 1-.7l.6.1v.4a1.1 1.1 0 00-.7-.2c-.3 0-.5.2-.5.5 0 .2.1.4.5.5.5.2.9.4.9 1 0 .5-.4.9-1 .9M39.5 12.2c-.4 1-2.5 0-3.5-.4a19.6 19.6 0 01-1.6-.9l.7 1h-1l1.6.8c1 .5 3.1 1.5 3.5.5.6-1.9 4.3.4 4.7.6l.3-1c-.4-.2-4.1-2.4-4.7-.6" fill="#990561"/><path d="M39 14c-.4 1-2.5 0-3.5-.5a21 21 0 01-1.6-.8l.7 1h-1l1.6.8c1 .5 3 1.5 3.4.4.7-1.8 4.4.5 4.8.7l.3-1c-.4-.2-4.1-2.5-4.8-.7" fill="#990561"/><path d="M38.4 15.7c-.4 1-2.4 0-3.5-.4a21.9 21.9 0 01-1.6-.9l.8 1h-1l1.6.8c1 .5 3 1.5 3.4.5.7-1.9 4.4.4 4.8.6l.2-1c-.3-.2-4-2.4-4.7-.6" fill="#990561"/><g transform="translate(27.1 9.174)"><mask id="l" fill="#fff"><use xlink:href="#k"/></mask><path d="M11.5.2C5.3.2.3 2.3.3 5c0 2.6 5 4.8 11.2 4.8 6.2 0 11.2-2.2 11.2-4.8 0-2.7-5-4.8-11.2-4.8m0 9.2c-5.5 0-10-2-10-4.4C1.5 2.5 6 .6 11.5.6s10 2 10 4.4c0 2.4-4.5 4.4-10 4.4" fill="#990561" mask="url(#l)"/></g></g></svg>