<svg width="77" height="46" xmlns="http://www.w3.org/2000/svg"><g fill="none" fill-rule="evenodd"><path fill-opacity=".01" fill="#F2F1F0" d="M0 0h77v46H0z"/><path d="M40.4 22h-2.2l-.7 2a63 63 0 012.9 0h2.8l-.8-2a58.6 58.6 0 00-2 0m-28.2 8v.2h.1c4-2 8.6-3.6 13.5-4.7V24a50.5 50.5 0 00-13.6 6.2m32.7-7.9l.9 2c2.6.2 5.2.6 7.7 1.2v-1.7a47.2 47.2 0 00-8.6-1.5M55.7 26c4.2 1 8 2.5 11.5 4.2h.2v-.2a53.5 53.5 0 00-11.7-5.5v1.5zm-27.6-2.5V25a68.9 68.9 0 017.6-1l.8-2c-2.9.2-5.7.6-8.4 1.3" fill="#E21A4B"/><path fill="#223068" d="M40.9 14h-.5l-6.9 16h1.2l5.5-14 6 14H48zm-13.7 6.7l-3.8-6.4h-1.7l4.5 6.9v5.1h1.5V21l4.5-6.7H31zm-13.7-1.2h-7v-5.2H5v12h1.5v-6h7v6h1.6v-12h-1.6zm36.3-4.3h4v11.1h1.6V15.2h4v-.9h-9.6zm14.6-.9v.9H68v11.1h1.7V15.2h3.6v-.9z"/></g></svg>