<svg width="77" height="46" xmlns="http://www.w3.org/2000/svg"><g fill="none" fill-rule="evenodd"><path fill-opacity=".01" fill="#F2F1F0" d="M0 0h77v46H0z"/><path d="M21.8 5l1.2.3 3 .7 4 .7c5.5.8 12.7.8 18.2 0l4-.8c1-.1 2-.4 3-.7l1-.2c.4 0 .8.4.8.9l-.3 1-.7 2.9a77.8 77.8 0 00-.7 4c-.9 5.4-.8 12.7 0 18.1a58.8 58.8 0 001.1 6.1l.3 1 .3.9a1 1 0 01-1 1l-1-.2-2.8-.7a72.5 72.5 0 00-4.1-.7A67.8 67.8 0 0024 40.4l-1 .3c-.5.1-1.2.5-1.7 0a.9.9 0 01-.3-.6l.3-1 .7-3c.5-2.7 1-5.3 1.2-8.4.3-4.5.2-9.7-.5-13.8a61.5 61.5 0 00-1.2-6l-.2-1c-.1-.4-.4-.7-.3-1.1 0-.5.4-.7.8-.8" fill="#DD271D"/><path d="M28.6 15.2h-1.2c0 .6-.3 1.7.1 2 .2.2.7.1 1 .1h1.2c-.1-.6.2-1.7-.1-2-.2-.2-.7-.1-1-.1m7.7 10.7c-.5.5-1.5.5-2.4.2V22v-.6c0-.2.2-.3.4-.5.4-.3 1.2-.7 1.9-.3.7.4.8 1.5.9 2.6 0 1-.2 2.2-.8 2.8m-.1-7.5c-1 0-1.7.5-2.3 1v-2.2c0-.5 0-1.6-.2-2h-2.2V27.4c.2.2.6.3 1 .4.9.2 2.1.3 3.2.2 3-.3 4-2.4 3.8-5.7-.1-2.3-1-4-3.3-3.9m5.8-3.2H41c0 .6-.3 1.8.2 2 .2.2.6.1 1 .1h1.1c-.1-.6.3-1.7-.2-2-.2-.2-.6-.1-1-.1m6 6.8c-.5-.2-1.1-.5-1.1-1 0-.6.8-.7 1.6-.7l1.8.4c0-.7.2-1.3-.1-1.7-.2-.2-.9-.3-1.2-.3-1.8-.4-3.5 0-4 1.1a3 3 0 000 3c.4.5 1.1.9 1.8 1.2.7.3 1.7.6 1.7 1.4 0 .8-1 1-1.9.8-.8 0-1.4-.2-2-.3.1.6 0 1.4.2 1.7l.6.2c1.2.3 2.8.3 3.8 0 .8-.4 1.5-1.2 1.6-2.3.2-2.2-1.4-2.8-2.9-3.5m-19.3-3.3h-1.2v8l.1 1.1c.2.2.7.1 1 .1h1.2v-8.1l-.1-1c-.2-.2-.7-.1-1-.1m13.5 0h-1.2V27c0 .4 0 .8.2 1h2.1v-8l-.1-1c-.2-.3-.7-.2-1-.2m-5 15.7c-.7.2-.7-1.2-.3-1.3.7-.2.7 1.1.3 1.3m.3-1.6a1 1 0 00-.6 0h-.4c-.3.3-.4 1.3-.1 1.7.2.2.7.3 1 .2.7-.3.6-1.7 0-2m6.7 1.1l-.5-.3s-.4 0-.3-.3c0-.3.6-.1.7 0v-.4c-.4-.1-.9-.1-1 .1-.2.3-.2.6 0 .7.2.3.7.3.7.6s-.5.2-.8.1v.3c.3.2 1 .2 1.2-.1a.7.7 0 000-.7m-8.2-1h-.5v.7h-.7v-.7h-.4v1.9h.4v-.9h.7v.9h.5v-2m3.6 0H38v.4h.5v1.6h.5v-1.6h.5v-.4m.7 1.1h.7v-.3h-.7v-.4h.8v-.4h-1.2v1.6c0 .5.8.5 1.3.3v-.3c-.4.1-1 .2-1-.5m1.8.5c-.2-.2 0-1.2 0-1.5h-.5c.1.5-.1 1.5.2 1.8.2.2.7.1 1 0v-.3c-.2 0-.5.2-.7 0" fill="#FEFEFE"/></g></svg>