<svg width="77" height="46" xmlns="http://www.w3.org/2000/svg"><g fill="none" fill-rule="evenodd"><path fill-opacity=".01" fill="#F2F1F0" d="M0 0h77v46H0z"/><path d="M67.1 35.4c.6 0 .9-.5.9-1.2s-.3-1.1-.8-1.1a1 1 0 00-.6.2l-.1-.2h-.7l.1.3h.3V36H65.9v.4h.4c.2 0 .3-.2.3-.4v-.8a.8.8 0 00.5.2zm0-2c.3 0 .4.5.4.8 0 .6-.2.8-.5.8-.2 0-.4-.1-.4-.4v-1l.4-.1zm-1.9 2h.4V35h-.2-.1v-1.8H64.5v.2h.3v1.4l-.5.2c-.2 0-.3-.1-.3-.3v-1.5h-.7v.2h.3v1.3l.1.5.5.2.7-.3c0 .2.2.2.3.2zm-3.1 0c.6 0 1-.6 1-1.2s-.3-1.1-1-1.1-1 .5-1 1.1c0 .7.3 1.2 1 1.2zm0-2c.4 0 .4.5.4.8 0 .4 0 .8-.4.8-.5 0-.5-.4-.5-.8 0-.3 0-.8.5-.8zm-1.4 0h.2v-.2l-.1-.1c-.3 0-.4.1-.6.3v-.2H59.4v.2h.4V35h-.3v.3h1V35h-.2-.1v-1.3a.7.7 0 01.5-.2zm-1.8.9h.3V34h-1v.2h.1l.1.2v.5a.9.9 0 01-.5.1c-.4 0-.7-.3-.7-1.1s.3-1.2.8-1.2c.3 0 .5.2.5.4v.2h.4v-.9h-.3v.2a.9.9 0 00-.7-.3c-.6 0-1.2.6-1.2 1.6 0 .9.4 1.5 1.1 1.5l.7-.2.1.1h.3v-1zm-4.2 1c.4 0 .7-.2.7-.5s-.2-.5-.5-.7l-.3-.1c-.2 0-.3-.2-.3-.3 0-.2.1-.3.3-.3.2 0 .4.1.4.4l.2.2h.1v-.8h-.2l-.5-.1c-.4 0-.7.2-.7.6 0 .3.1.5.5.6l.3.2c.2 0 .3.1.3.3 0 .1-.2.3-.4.3s-.4-.2-.4-.4v-.1l-.2-.1H54v.8h.2v-.1l.6.2zm-2.2 0h1V35h-.2v-2.8L53 32h-.6v.3h.3V35h-.3v.3zm-.3-1v-.1c0-.8-.4-1.1-.8-1.1a.9.9 0 00-.7.3c-.2.2-.3.5-.3.8 0 .7.3 1.2 1 1.2l.7-.3-.2-.2a.8.8 0 01-.5.1c-.3 0-.5-.2-.5-.7h1.3zm-.8-.9c.2 0 .3.2.3.6H51c0-.4.2-.6.5-.6zm-1.7 2l.4-.1V35a.8.8 0 01-.3 0c-.2 0-.3 0-.3-.4v-1.2h.5v-.2h-.5v-.6h-.3l-.1.2v.4h-.3v.2h.3v1.7l.6.3zm-2.1 0c.7 0 1-.6 1-1.2s-.3-1.1-1-1.1-1 .5-1 1.1c0 .7.3 1.2 1 1.2zm0-2c.4 0 .5.5.5.8 0 .4 0 .8-.5.8-.4 0-.5-.4-.5-.8 0-.3 0-.8.5-.8zm-2.4 2h1V35h-.1L46 35v-2.2h.2v-.3h-1v.3h.1l.2.1v.9h-1.1v-1h.3v-.3h-1.1v.3h.2V35h-.2v.3h1V35h-.1l-.1-.1V34h1v1h-.2v.3zm-3.8 0h.9V35H42v-2.8-.1h-.7v.3h.3V35h-.2v.3zm-.7 0h.3V35h-.2v-1.1c0-.6-.4-.8-.8-.8l-.7.1v.4l.6-.2c.1 0 .3 0 .3.2l.1.3c-.6 0-1.1.3-1.1.8 0 .4.2.7.6.7a.8.8 0 00.6-.2l.3.1zm-.4-1.2v.7a.5.5 0 01-.3.1c-.3 0-.4-.1-.4-.3 0-.3.3-.5.7-.5zm-1.8 1.2l.4-.1V35a.8.8 0 01-.3 0c-.2 0-.3 0-.3-.4v-1.2h.5v-.2h-.5v-.6h-.4V33.3h-.3v.2h.2v1.2l.1.5.6.3zm-2.1 0h1V35h-.2-.1v-1.2c0-.2 0-.4-.2-.5 0-.2-.2-.2-.4-.2a1 1 0 00-.7.3v-.2H35v.2h.3V35H35v.3h1V35h-.2v-1.3l.4-.2c.2 0 .3 0 .3.3V35h-.2v.3zm-1.6-1.1v-.1c0-.8-.4-1.1-.9-1.1a.9.9 0 00-.6.3c-.2.2-.3.5-.3.8 0 .7.2 1.2 1 1.2l.7-.3-.2-.2a.8.8 0 01-.5.1c-.3 0-.5-.2-.6-.7h1.4zm-.9-.9c.2 0 .4.2.4.6h-.8c0-.4.2-.6.4-.6zm-2.2 2h1V35h-.2-.1v-1.2l-.1-.5c-.1-.2-.3-.2-.5-.2a1 1 0 00-.6.3v-.2h-.8v.2h.3V35h-.2v.3h.9V35H31.1v-1.3l.6-.2c.2 0 .2 0 .2.3V35h-.2v.3zm-2.6 0h1V35h-.2v-1.8H29v.2h.3V35H29v.3zm.5-2.6c.2 0 .3-.1.3-.3a.3.3 0 00-.3-.2.3.3 0 100 .5zm-1.2 2.6a1 1 0 00.4-.1V35a.8.8 0 01-.3 0c-.2 0-.3 0-.3-.4v-1.2h.5v-.2h-.5v-.6H28l-.1.2v.4h-.3v.2h.3v1.7l.6.3zm-2 0h.9V35H27v-1.2l-.2-.5c-.1-.2-.3-.2-.4-.2a1 1 0 00-.7.3v-.2H25v.2h.3V35h-.2v.3h1V35H25.7v-1.3l.5-.2c.2 0 .3 0 .3.3V35h-.3v.3zm-2.6 0c.6 0 1-.6 1-1.2s-.3-1.1-1-1.1-1 .5-1 1.1c0 .7.3 1.2 1 1.2zm0-2c.4 0 .4.5.4.8 0 .4 0 .8-.4.8-.5 0-.5-.4-.5-.8 0-.3 0-.8.5-.8zm-2.3 2c.4 0 .8-.2 1-.4l-.2-.3c-.1.2-.4.3-.7.3-.4 0-.7-.3-.7-1.2 0-.6.2-1 .7-1 .3 0 .5 0 .5.3v.2l.2.1h.1v-1h-.2v.2a.8.8 0 00-.7-.2c-.7 0-1.2.6-1.2 1.5 0 1 .5 1.5 1.2 1.5zm-1.5-2h.1v-.2l-.1-.1c-.3 0-.4.1-.6.3v-.2h-.7v.2h.3V35h-.3v.3h1V35h-.2v-1.3a.7.7 0 01.5-.2zm-1.7.9v-.1c0-.8-.4-1.1-.8-1.1-.3 0-.5.1-.6.3-.2.2-.3.5-.3.8 0 .7.2 1.2.9 1.2.3 0 .6-.2.7-.3l-.1-.2a.8.8 0 01-.5.2c-.3 0-.6-.3-.6-.8h1.3zm-.8-.9c.2 0 .4.2.4.6H17c0-.4.2-.6.5-.6zm-1.6 2l.4-.1V35a.8.8 0 01-.3 0c-.2 0-.3 0-.3-.4v-1.2h.5l-.1-.2h-.4v-.6h-.4V33.3H15v.2h.2v1.2l.1.5.6.3zm-2.1 0h1V35h-.2-.1v-1.2c0-.2 0-.4-.2-.5 0-.2-.2-.2-.4-.2a1 1 0 00-.7.3v-.2h-.7v.2h.3V35h-.3v.3h1V35h-.2v-1.3l.4-.2c.2 0 .3 0 .3.3V35h-.2v.3zm-2.8 0V35h.3v-2.2H11v-.4h1v.3h-.2V35l.1.1h.2v.3h-1z" fill="#D81921"/><path d="M36.7 19.1v-.4.4" fill="#DC6233"/><path d="M36.7 11.8V8.4H30v8h-5v-8h-6.7v20.8h6.6v-8.6H30v8.6h6.7v-3.3a11 11 0 01-2.5-7c0-2.7 1-5.2 2.5-7" fill="#E15F26"/><path d="M55.4 17.8H44V20h8.8a8 8 0 01-8 7.5c-4.5 0-8-3.7-8.1-8.4V26a10.5 10.5 0 0018.7-7v-1m-10.5-7.7c-4.6 0-8 3.8-8.2 8.5v-6.9c2-2.3 4.8-3.8 8.2-3.8 3 0 5.8 1.2 7.8 3.3L50.8 13a8 8 0 00-6-2.7" fill="#E77E1D"/><path d="M36.7 18.9V11.8a11 11 0 00-2.5 7c0 2.8 1 5.2 2.5 7.1v-6.8-.2" fill="#C5281C"/><path fill="#D81921" d="M11 29.2h6.6V8.4H11z"/></g></svg>