<svg width="77" height="46" xmlns="http://www.w3.org/2000/svg" xmlns:xlink="http://www.w3.org/1999/xlink"><defs><path id="a" d="M1.4 1.4V0H.1v1.3h1.3z"/><path id="c" d="M.1 2.9h2.5V.1H.1V3z"/><path id="e" d="M0 2.8h2.2V0H.1v2.8z"/><path id="g" d="M0 2.9h2.5V.1H0z"/></defs><g fill="none" fill-rule="evenodd"><path fill-opacity=".01" fill="#F2F1F0" d="M0 0h77v46H0z"/><path d="M65.3 27.6L64 32c-.1.3-.2.6-.4.6h-.2v.1h1.2v-.1c-.2 0-.3 0-.3-.2v-.4l.4-1h.6v-.4h-.5l.4-1.7v-1.2zm.5 3.3l.5 1.4v.2H66l.2.1h1.2l-.3-.1c-.1 0-.3-.2-.5-.8-.3-1-1-3.8-1.2-4.1v-.3c-.2 0-.2.1-.2.3V28.8l.4 1.7h-.4v.4h.5zm-30.4-2l1.2 1.7 1.5 2 .1.1.1-.2v-4.3c0-.4.1-.5.2-.6h.2v-.1h-1.3l.1.1h.3l.1.7.1 3-1.1-1.5-1.5-2.2-.2-.2-.1.2v4c0 .6 0 .8-.2.9H34.6l.1.1H36v-.1h-.2c-.2 0-.2-.3-.2-.8V29zm5.4 1.8V32l-.1.4H40.4l.1.1H42v-.1h-.3c-.2 0-.2-.2-.2-.4V27.9h.6c.4 0 .6.2.6.4v.2-1.1l-.4.1h-2.5l-.2-.1v.1l-.2.8v.1h.1l.1-.3c0-.2.2-.2.5-.2h.7v2.8zm3.5 0v1.5c0 .1 0 .3-.2.3H44v.1h1.5v-.1H45l-.2-.3V28c0-.2 0-.3.2-.4h.2v-.1H43.7l.1.1h.2l.2.4v2.7zm2.8-1.8l1.2 1.7 1.5 2 .1.1.1-.2v-4.3c0-.4.1-.5.3-.6h.2l-.1-.1H49.2v.1h.3c.1.1.2.3.2.7v3a42 42 0 00-1.1-1.5L47 27.6l-.2-.2-.1.2v4c0 .6 0 .8-.2.9H46.3l.1.1h1.2v-.1h-.2c-.2 0-.2-.3-.2-.8V29zm4.8 1.8V32l-.1.4H51.5l.1.1h2.3l.3-.1v-.9l-.1.1c0 .3 0 .4-.2.5H53c-.5 0-.5 0-.5-.5v-1.6h1l.2.2v.3h.1V30l.1-.5h-.1l-.3.1h-1v-1.8h1c.2 0 .3.1.3.2v.3h.1v-.5-.4h-2.5v.1h.2c.2 0 .2.2.2.4v2.7zm4.1-1.8c.2 0 .7 1 1.2 1.7l1.5 2 .2.1v-4.5c0-.4.1-.5.3-.6h.2l-.1-.1H58.1v.1h.3c.1.1.2.3.2.7v3l-1-1.5a63.9 63.9 0 01-1.9-2.2v4c0 .6 0 .8-.2.9h-.2v.1h1.3v-.1h-.3c-.1 0-.2-.3-.2-.8V29zm5.5 1.8V32l-.2.4h-.2v.1h1.5v-.1h-.3c-.2 0-.2-.2-.2-.4V27.9h.6c.4 0 .6.2.6.4v.2-.1l.1-.8v-.2l-.5.1h-2.5l-.2-.1v.1l-.1.8v.1l.1-.3c.1-.2.2-.2.5-.2h.8v2.8zm7.6-1.2V28c0-.2 0-.3.2-.4h.2v-.1H68v.1h.2l.2.4v4.1c0 .2 0 .4-.2.4h-.2v.1H70.3l.4-.1v-.9l-.2.5c-.1.2-.3.2-.6.2-.4 0-.5 0-.6-.2V29.5zm-37.5-1.8c-.7 0-1.3.5-1.3 2.1 0 1.4.5 2.4 1.3 2.6v.3c-1.4 0-2-1.4-2-2.6 0-1.2.6-2.7 2-2.7v.3zm.2 4.7c.3 0 1.2-.2 1.2-2.2 0-1.5-.6-2.4-1.4-2.5v-.3c1.3 0 2 1 2 2.5s-.7 2.8-2 2.8v-.3h.2zm-26.3-2V32c0 .2 0 .3-.2.4h-.2v.1H6.8v-.1h-.3c-.2 0-.3-.2-.3-.4V29v-1.6c0-.3 0-.4.2-.5h.2v-.1H5l.1.1h.2c.1 0 .2.2.2.5v3zm3-1.5l1.2 1.7 1.5 2 .2.1v-4.5c0-.4.1-.5.3-.6h.2l-.1-.1h-.5-.7v.1h.3c.2.1.2.3.2.7v3l-1-1.5-1.6-2.2-.2-.2v.2l-.1 4c0 .6 0 .8-.2.9h-.2v.1h1.3v-.1h-.3c-.1 0-.2-.3-.2-.8V29zm5.5 1.8V32l-.2.4h-.2v.1h1.5v-.1h-.3l-.2-.4V27.9h.6c.5 0 .6.2.6.4v.2l.1-.1v-1l-.5.1h-2.5l-.2-.1v.1l-.1.8v.1l.1-.3c.1-.2.2-.2.5-.2h.8v2.8zm3.2 0V32l-.2.4h-.2v.1h2.3l.3-.1v-.9.1c0 .3-.1.4-.3.5h-.7c-.5 0-.6 0-.6-.5v-1.6h1c.2 0 .3.1.3.2v.3l.1-.5v-.5l-.3.1h-1.1v-1.8h1c.3 0 .3.1.3.2v.3h.1v-.5l.1-.4h-2.6v.1h.2c.2 0 .2.2.3.4v2.7zm3.8 0V32l-.2.4h-.2v.1H22v-.1h-.2c-.2 0-.2-.2-.2-.4v-1.6h.4v-.3h-.4V27.7h.5v-.3H21.2h-.8l.1.1h.2c.2 0 .2.2.3.4v2.7zm1-.2h.1l.5 1 .7 1 .5.1h.5v-.1h-.1c-.1 0-.3 0-.6-.5l-1-1.8c.4-.5.6-1 .6-1.5 0-.4-.2-.8-.3-1a1 1 0 00-.8-.2v.4c.2.1.5.4.5 1.2 0 .5-.1.8-.3 1h-.2v.4zm5.4 2.2c.3 0 .8 0 1-.2l.1-.2.2-1v-.1l-.2.1c0 .2 0 .4-.2.5-.2.4-.5.5-1 .5-.8 0-1.8-1-1.8-2.7 0-.8.1-1.5.5-2 .3-.3.6-.5 1.1-.5.5 0 1 .3 1.1.5.2.2.3.5.3.7v.2l.1-.2v-.8-.5l-.6-.1-.8-.1c-.9 0-1.4.3-1.8.8-.6.7-.7 1.5-.7 2 0 .8.2 1.6.7 2.3.5.6 1.2.8 2 .8" fill="#004C93"/><g transform="translate(71.076 31.369)"><mask id="b" fill="#fff"><use xlink:href="#a"/></mask><path d="M.8.1v.1C.5.2.3.4.3.7s.2.5.5.5v.2C.4 1.4 0 1 0 .7.1.3.4.1.8.1zM.7.8h.1V.8H.7V.5h.1V.4H.5V1h.2V.8zm.1.6v-.2c.2 0 .4-.2.4-.5S1 .2.8.2V.1c.3 0 .6.2.6.6a.6.6 0 01-.6.7zm0-.5V1h.3L.9.8 1 .6C1 .4 1 .4.8.4l.1.2H.8V1z" fill="#004C93" mask="url(#b)"/></g><path d="M32 15.7c0-5.3 4.6-7.6 5.8-8.7 1.3 1 5.9 3.4 5.9 8.7 0 5.3-4.6 7.7-5.9 8.7-1.2-1-5.8-3.4-5.8-8.7" fill="#A37D43"/><path d="M38.7 15.4v-2c0-1.1.7-1.8 1.4-1.8v-.1h-4.5v.1c.7 0 1.4.7 1.4 1.7v4.8c0 1-.7 1.7-1.4 1.7v.2H40v-.2c-.7 0-1.4-.6-1.4-1.7v-2.7z" fill="#FFF"/><path d="M37.8 23c-1-.9-4.7-2.9-4.7-7.3s3.6-6.4 4.7-7.3c1 .9 4.7 2.8 4.7 7.3s-3.6 6.5-4.7 7.3m0-15.1v-.5c-1.2 1.1-5.5 3.3-5.5 8.3 0 5 4.3 7.2 5.5 8.2v-.4c1.1-1 5-3 5-7.8s-3.9-6.9-5-7.8" fill="#FFF"/><path fill="#000" d="M17 35h.2V36h1.6V35h.2v2.7h-.2v-1.3h-1.6v1.3h-.3z"/><g transform="translate(19.88 34.773)"><mask id="d" fill="#fff"><use xlink:href="#c"/></mask><path d="M1.4 2.7c.7 0 1-.6 1-1.2S2 .3 1.4.3s-1 .6-1 1.2.3 1.2 1 1.2m0-2.6c.8 0 1.2.7 1.2 1.4S2.2 3 1.4 3C.5 2.9 0 2.2 0 1.5S.5.1 1.4.1" fill="#000" mask="url(#d)"/></g><path fill="#000" d="M23.2 35h2v.2h-.8v2.4H24v-2.4h-1zm2.9 0h1.8v.2h-1.5v1h1.4v.1h-1.4v1.1H28v.2h-2zm2.8 0h.2v2.4h1.5v.2H29zm2.7 1.7c0 .6.4.8.8.8.3 0 .7-.2.7-.6 0-.3-.3-.4-.5-.5l-.6-.1c-.3 0-.6-.2-.6-.7 0-.2.2-.7 1-.7.4 0 1 .3.9.8H33c0-.4-.3-.6-.7-.6-.3 0-.6.1-.6.5 0 .3.1.4.4.4l.6.2c.4.1.7.3.7.7 0 .2 0 .8-1 .8-.7 0-1.1-.3-1-1h.2z"/><g transform="translate(35.768 34.9)"><mask id="f" fill="#fff"><use xlink:href="#e"/></mask><path d="M.6.6c0 .2.2.4.3.5.2 0 .4-.3.4-.5S1.2.2 1 .2C.8.2.6.4.6.6zm.3.8c-.3.1-.6.3-.6.6 0 .4.3.6.6.6s.5-.2.6-.4L1 1.4zm.8 1a1 1 0 01-.8.4C.4 2.8 0 2.5 0 2c0-.4.3-.6.6-.8L.4.6C.4.3.7 0 1 0s.6.3.6.6-.3.5-.5.7l.5.7.1-.5H2c0 .2 0 .4-.2.7l.4.5H2l-.3-.3z" fill="#000" mask="url(#f)"/></g><path d="M40.7 36.2h1c.2 0 .5-.2.5-.5s-.2-.5-.6-.5h-1v1zm-.3-1.3h1.2c.5 0 .8.3.8.7 0 .4-.1.7-.5.7.4 0 .5.3.5.6l.1.7h-.3v-.4c0-.4 0-.8-.6-.8h-1v1.2h-.2V35zm3 0h2v.3h-1.7v1h1.5v.1h-1.5v1.1h1.6v.2h-1.8zm3 1.8c0 .6.4.8.8.8.3 0 .7-.2.7-.6 0-.3-.3-.4-.5-.5l-.6-.1c-.3 0-.6-.2-.6-.7 0-.2.2-.7 1-.7.4 0 1 .3.9.8h-.3c0-.4-.3-.6-.7-.6-.3 0-.7.1-.7.5 0 .3.2.4.5.4l.6.2c.4.1.7.3.7.7 0 .2 0 .8-1 .8-.7 0-1.1-.3-1-1h.2z" fill="#000"/><g transform="translate(49.009 34.773)"><mask id="h" fill="#fff"><use xlink:href="#g"/></mask><path d="M1.3 2.7c.7 0 1-.6 1-1.2S2 .3 1.3.3s-1 .6-1 1.2.3 1.2 1 1.2m0-2.6c.8 0 1.2.7 1.2 1.4S2.1 3 1.3 3C.4 2.9 0 2.2 0 1.5S.4.1 1.3.1" fill="#000" mask="url(#h)"/></g><path d="M52.7 36.2h1c.3 0 .6-.2.6-.5s-.2-.5-.6-.5h-1v1zm-.2-1.3h1.2c.5 0 .8.3.8.7 0 .4-.1.7-.5.7.4 0 .5.3.5.6l.1.7h-.3v-.4c0-.4-.1-.8-.6-.8h-1v1.2h-.2V35zm2.8 0h2.1v.3h-1v2.4h-.2v-2.4h-1zm3 1.8c0 .6.4.8.9.8.3 0 .7-.2.7-.6 0-.3-.3-.4-.5-.5l-.6-.1c-.4 0-.6-.2-.6-.7 0-.2.1-.7.9-.7.5 0 1 .3 1 .8h-.3c0-.4-.3-.6-.7-.6-.4 0-.7.1-.7.5 0 .3.2.4.4.4l.7.2c.3.1.7.3.7.7 0 .2-.1.8-1 .8-.7 0-1.2-.3-1.1-1h.2z" fill="#000"/></g></svg>