<svg width="77" height="46" xmlns="http://www.w3.org/2000/svg" xmlns:xlink="http://www.w3.org/1999/xlink"><defs><path id="a" d="M5 36.8h68.5V9H5z"/></defs><g fill="none" fill-rule="evenodd"><path fill-opacity=".01" fill="#F2F1F0" d="M0 0h77v46H0z"/><path d="M27.7 18.2c.2 0 .3.1.3.3 0 .8-1.6 2.5-2.3 2.5.1-.8 1.3-2.8 2-2.8zM49 14.5c-.2 0-.9.6-.8.8 0 .2 0 .3.2.3.3 0 .9-.5.8-.8 0-.2-.1-.3-.2-.3zm22.2-1.2c-.3 0-1 .6-1 .8 0 .2.1.3.2.3.4 0 1-.5 1-.9l-.2-.2zm-5.3-3.7c-.2 0-.6.2-1 .6l-.9 1.1-.6.7-3.6 3.4c-.8.7-1.6 1-2 2.2-.4 0-.7.1-1 .4-.6.3-.8 1-.8 1.2-.2.5-.6 1-.9 1.4-.3.5-1.5 1.6-1.9 1.6-.3 0-.5-.1-.5-.5 0-.8.9-2.1.9-3 0-.3-.3-.4-.5-.4-1 0-1.9 1-2.5 1.6l.5-1.4c0-.1-.3-.3-.5-.3-.4 0-.4.3-.6.6l-1.8 2c-.5.4-1.5 1.5-2 1.5 0 0-.3 0-.3-.4 0-.6 1.3-2.7 1.7-3.5.1-.1-.2-.2-.3-.2a1 1 0 00-.5.1c-.3.2-.5 1-.8 1.2-.7.7-2.3 1.9-3.2 2.3.6-.6 1.5-1.5 1.5-2.4 0-.7-.4-1-1-1-.9 0-1.4.4-2 .9l1.1-2.4h-.2c-.6 0-.9.2-1.1.9l-.9 2.1c-.3.6-.6 1.3-1 1.7-.3.3-.7.8-1.1.9-.4 0-.4-.4-.4-.7 0-.4.3-.9.4-1.3.1-.4.4-1.1.4-1.5 0-.4-.2-.6-.6-.6-1.1 0-1.8.8-2.3 1.3.2-1.2-.2-1.4-.7-1.4-1.1 0-2.3 1.2-2.8 2 .2-.5.6-1.6.6-2 0-.1 0-.3-.2-.2-.5 0-2.3.6-2.3 1.2l.3.2c.2 0 .6-.5 1-.5 0 .2 0 .5-.2.7-1 1.8-3 3.3-4.7 3.3-.6 0-1-.4-1-1.1v-.6c.7 0 1.9-.8 2.3-1.2.5-.5 1.1-1.2 1.1-2 0-.3-.5-.6-.8-.6-1.9 0-3.6 2.7-3.6 4.5 0 1.2.7 1.7 1.7 1.7 1.6 0 4-1.8 4.8-3.1l-.7 2c0 .3.3.3.4.3.5 0 .6-.3.8-1l.3-.5c1.1-2 2.1-2.5 2.5-2.5.2 0 .3.1.3.4 0 .6-1.1 2.5-1.1 3 0 .2.1.3.2.3.3 0 .7-.1.9-.5l.8-1.7c.3-.5 1.3-1.4 1.7-1.4.2 0 .3 0 .3.2l-.4 1.3-.5 1.8c0 .5.2.9.7.9.8 0 1.7-1 2.2-1.5l.3-.3-1.2 2.8c-1 2.4-2 4.4-4.6 5.6v.1l.7-.2c2.5-1.2 3.6-3 4.8-5.5l1.6-3.7c.4-.7.8-1.7 1.7-1.7.3 0 .5.4.5.6 0 .5-.4 1-.7 1.4-.5.8-1 1.1-1.8 1.6a.3.3 0 00-.1.3c0 .2.2.2.4.2.4 0 .6-.2.9-.3 1.2-.4 2.5-1.5 3.6-2.4-.1.4-.7 1.4-.7 2 0 .5.5.7.6.7 1 0 2.3-1.3 3-2l1.4-1.5c-.4 1-1.2 2.4-1.7 3.3 0 .2 0 .3.2.3.4 0 .8-.1 1-.5l1-1.7c.3-.6 1-1.7 1.8-1.7a.3.3 0 01.2.4c-.3 1-.6 1.5-.6 2.4 0 .5.2 1 .8 1 1 0 2.3-1.5 2.8-2.2l.8-1c0 .3.2.5.4.7.2.3 1 1 1 1.3 0 .5-.6.6-.8.6-.8 0-1-.5-1.4-.5-.1 0-.4 0-.4.3l.2.3c.5.3.9.3 1.4.3 1 0 1.6-.6 1.6-1.5 0-.7-.2-.8-.6-1.3-.2-.3-.7-.7-.7-1 0-.6.3-.8.7-.8h.5c.2.3.6.5 1 .5.2 0 .8 0 1.2-.5v-.2a1.2 1.2 0 01-.5.1c-.4 0-1.2-.2-1.2-.7 0-.5.6-1 1-1.2 1.3-1.3 2.1-2.1 3.6-3.2-1.7 3.3-3.3 7-4.7 10.3h.4c.7 0 1-1.1 1.3-1.6l.9-2.2a2.3 2.3 0 000 .5c0 1.4 1.1 3 2.7 3 1.4 0 3-1.2 3.9-2-.1.3-.2.4-.2.9 0 .6.6 1 1 1a4 4 0 002.1-.8c.7-.5 2.9-2.5 2.9-3.2l-.3.1c-.5.9-1.9 2.2-2.6 2.7-.3.2-1 .5-1.4.5-.3 0-.6-.1-.6-.6 0-1.4 2-3.3 2-3.8l-.3-.1-.4.1a1 1 0 00-.6.3l-1.5 2.3c-.1.2-2 1.9-3.2 1.9-1 0-1.6-.3-2.1-1.2-.3-.4-.5-1.2-.5-1.5 0-.2 0-.3.3-.5l2-1.3s.2 0 0-.2l-.2-.1c-.3 0-.5.3-1 .6l-2 1.3 3.1-6.5.7-1.2c.3-.6 1.2-1.3 1.1-1.9l-.1-.1zM35.6 9c-3.2 0-8.4 3.6-10.7 5.4l-4 3 1.3-2.3c.3-.7 1.6-2.6 2.1-3.1l.2-.4c0-.2-.1-.3-.3-.3-1.5.6-2.4.7-3.8.8-2 .3-4.5 1.7-4.5 4.2 0 .3.1 1 .4 1.2l.4.3c0-.2-.4-.7-.4-1.3 0-2.1 2-3.2 3.6-3.6l2.8-.4a335 335 0 01-3.4 5.6c-1 1.6-1.4 2.5-2.3 3.7a25.4 25.4 0 01-4.1 5 6 6 0 01-4 1.8c-1 0-2-.3-2.8-1.2-.2-.3-.3-.8-.3-1.1a.8.8 0 00-.4-.1c-.2 0-.4.2-.4.5C5 27.8 7.2 29 9 29c2.3 0 3.9-1 5.4-2.4a36.1 36.1 0 005.8-8.1c.6 1.3 1 2.7 1.4 4 1.2 3 3 5.2 6.3 5.3 1.7 0 3.8-1.2 4.7-2.4l.1-.3c0-.1-.1 0-.1 0-1.2 1.2-2.8 2.3-4.5 2.3-2.2 0-3.5-1.2-4.6-3-.9-1.6-1.5-4-2-5.7a1 1 0 01-.1-.4c0-.6.8-1 1.2-1.4 1.6-1.1 3.1-2.3 4.7-3.3 2-1.4 6-4.2 8.6-4.1.4 0 1.4 0 1.3.6 0 .4-.4.7-.4 1l.2.1c.4 0 .8-.5.8-1 0-.9-1.4-1.2-2-1.2h-.2zM19 35.3v-.8-.2h-.2.8l-.1.2V36.5l.1.2h.2-1 .1l.1-.2v-1h-1.2v1l.1.2h.2-.6-.4.1l.1-.2V35.2v-.7l-.1-.2H17 17h.9l-.1.2V35.3H19m3.8.3c0-.8-.4-1.2-1-1.2-.3 0-.7.2-.7 1 0 .7.3 1.3 1 1.3.2 0 .7-.2.7-1.1m-2.2 0c0-.6.4-1.4 1.4-1.4.8 0 1.3.5 1.3 1.3 0 .7-.5 1.3-1.4 1.3-1 0-1.3-.7-1.3-1.3m4.3-1H24a.4.4 0 000 .2H24v-.4h2.2v.4H26c0-.1 0-.2-.4-.2h-.4v2l.1.2h.2-.9-.1.2v-.2-2m2.8.7v-.7l-.2-.2h-.1 1.5v.4a.3.3 0 000-.1l-.3-.1H28v.8H28.8v.2a4 4 0 000 .2v.1h-.1v-.1c0-.1 0-.2-.2-.2H28v.8c0 .3 0 .3.4.3h.3l.2-.3v.4h-1.1-.4c.2 0 .2 0 .2-.2V35.2m3.4.6v.7l.4.1h.4l.1-.3v.4h-1.2-.4.1l.1-.2V35.2v-.7-.2h-.2.8l-.1.2V35.8m2.3 1l-.1-.2v-.4-.1l.1.2c0 .3.3.4.5.4.3 0 .4-.2.4-.4s0-.3-.3-.5l-.1-.2c-.4-.2-.5-.5-.5-.8 0-.3.3-.6.7-.6h.5v.6a.4.4 0 00-.2-.3.4.4 0 00-.3-.1c-.3 0-.4.1-.4.3 0 .2 0 .3.3.5h.1c.4.4.6.6.6.9a.7.7 0 01-.3.6 1 1 0 01-.6.1h-.4m6.4-.4a12.4 12.4 0 01-.6-.6 7 7 0 01-.4-.4l-.2.5c0 .5.3.7.6.7l.6-.2m-1-1.1a.7.7 0 01-.2-.5c0-.2.2-.6.8-.6a1.1 1.1 0 01.4 0V34.9a.4.4 0 00-.2-.3l-.3-.1a.3.3 0 00-.4.3c0 .4.3.6.6 1l.5.5a1 1 0 00.2-.5v-.2a.3.3 0 00-.2 0v-.1h.5c0 .3-.1.7-.3.9l.4.3a1 1 0 00.4.1h-.3c-.4 0-.5 0-.8-.2a1 1 0 01-.8.3c-.7 0-1-.4-1-.7 0-.4.4-.7.6-.8m6 .2h.5l.1-.5c0-.4-.3-.6-.5-.6h-.1v1zm-.5-.3v-.7l-.1-.2h-.1.9l.6.1a.6.6 0 01.2.5c0 .2 0 .4-.4.7l.7.9.4.2h.1-.7l-.5-.5c0-.2-.2-.4-.3-.4h-.3V36.7h.2-.5-.4.1l.1-.2V35.2zm3.5 0v-.7l-.2-.2h-.2H48.8v.4a.3.3 0 000-.1l-.3-.1H48v.8h.7v.2a3.7 3.7 0 000 .2v0c0-.1 0-.2-.2-.2H48v.8c0 .3 0 .3.4.3h.3l.2-.3v.4h-1.2-.3-.1.2v-.2V35.2m2.8 1.5v-.5-.1a.6.6 0 000 .2c.1.3.3.4.5.4.3 0 .5-.2.5-.4s0-.3-.3-.5l-.2-.2c-.4-.2-.5-.5-.5-.8 0-.3.3-.6.8-.6h.4v.6a.4.4 0 00-.1-.3.4.4 0 00-.4-.1c-.2 0-.4.1-.4.3 0 .2.1.3.4.5.5.4.6.6.6.9a.7.7 0 01-.3.6 1 1 0 01-.5.1h-.5m4.7-1.2c0-.8-.5-1.2-1-1.2-.4 0-.8.2-.8 1 0 .7.4 1.3 1 1.3.2 0 .8-.2.8-1.1m-2.3 0c0-.6.4-1.4 1.4-1.4.8 0 1.3.5 1.3 1.3 0 .7-.5 1.3-1.3 1.3-1 0-1.4-.7-1.4-1.3m4.3 0h.5c.1 0 .2-.2.2-.5 0-.4-.3-.6-.5-.6h-.1v1zm-.4-.3v-.7l-.1-.2h-.1-.1 1l.6.1a.6.6 0 01.2.5c0 .2 0 .4-.4.7l.7.9.4.2h.1-.7c-.2 0-.3-.2-.5-.5l-.3-.4H57v.7c0 .1 0 .2.2.2h.1-.5-.4.1l.1-.2V35.2zm3.8-.7h-.8a.4.4 0 00-.1.2v-.4h2.2v.4h-.1c0-.1-.1-.2-.4-.2h-.4v2l.1.2h.2-.9-.1.2v-.2-2m2.3 2.2v-.5-.1a.6.6 0 00.1.2c0 .3.3.4.5.4.3 0 .4-.2.4-.4s0-.3-.3-.5l-.2-.2c-.3-.2-.4-.5-.4-.8 0-.3.3-.6.7-.6h.5v.6a.4.4 0 00-.2-.3l-.3-.1c-.3 0-.4.1-.4.3 0 .2 0 .3.3.5h.1c.4.4.6.6.6.9a.7.7 0 01-.3.6 1 1 0 01-.6.1h-.5" fill="#1B458E"/><mask id="b" fill="#fff"><use xlink:href="#a"/></mask><path fill="#898A8E" mask="url(#b)" d="M17.2 32.6H64V32H17.2z"/></g></svg>