<svg width="77" height="46" xmlns="http://www.w3.org/2000/svg"><g fill="none" fill-rule="evenodd"><path fill-opacity=".01" fill="#F2F1F0" d="M0 0h77v46H0z"/><path d="M23.5 33.9h1.7v.3h-1.4v.9h1.4v.3h-1.4v.5c0 .4.2.6.7.6h.8v.2h-.8c-.7 0-1-.1-1-.8v-2zm21.5 0h1.8v.3h-1.4v.9h1.3v.3h-1.3v.5c0 .4.1.6.6.6h.8v.2H46c-.7 0-1-.1-1-.8v-2zM27.6 36c0 .4.2.5.7.5h.7v.3h-.7c-.7 0-1-.1-1-.7V34h.3V36zm8.8-1a1 1 0 00-.7 1c0 .5.3.8 1 .8.8 0 1.3-.8 1.1-1.6h-.2c0 .8-.3 1.3-1 1.3-.3 0-.6-.2-.6-.5s.2-.7.6-.8l-.2-.2zm1.5 1.8h.4l-1.5-1.5-.4-.7c0-.3.3-.5.6-.5h.6V34H37c-.7 0-1 .3-1 .7 0 .2.2.4.4.6l1.5 1.6zm27 0c-.4 0-.8 0-1-.2v-.3l1 .2c.4 0 .6-.2.6-.5 0-.9-1.6-.3-1.6-1.4 0-.4.3-.8 1-.8l.8.1v.3l-.9-.1c-.4 0-.6.2-.6.4 0 .8 1.6.3 1.6 1.5 0 .5-.4.8-1 .8zm-15.4 0c-.3 0-.7 0-1-.2v-.3l1 .2c.5 0 .7-.2.7-.5 0-.9-1.6-.3-1.6-1.4 0-.4.3-.8 1-.8l.7.1v.3l-.8-.1c-.4 0-.6.2-.6.4 0 .8 1.6.3 1.6 1.5 0 .5-.4.8-1 .8zm-8-1.6h.7c.3 0 .6-.1.6-.5s-.3-.5-.6-.5h-.7v1zM41 34h1c.6 0 1 .3 1 .8s-.3.7-.7.8l.9 1.3h-.4l-.8-1.2h-.7v1.2h-.3v-3zm12.4.2c-.7 0-1 .6-1 1.2s.3 1.2 1 1.2 1-.6 1-1.2-.3-1.2-1-1.2zm0 2.7c-.9 0-1.4-.7-1.4-1.5s.5-1.5 1.4-1.5c1 0 1.4.7 1.4 1.5s-.5 1.5-1.4 1.5zm7.8-2.6v2.6H61v-2.6h-1v-.3h2.4v.3h-1zm-4.4 1h.7c.4 0 .6-.1.6-.5s-.2-.5-.6-.5H57v1zm-.3-1.3h1c.5 0 1 .3 1 .8s-.3.7-.7.8l.9 1.3h-.4l-.9-1.2H57v1.2h-.3v-3zm-25 3c-.4 0-.8-.2-1-.3v-.3l1 .2c.4 0 .7-.2.7-.5 0-.9-1.7-.3-1.7-1.4 0-.5.4-.8 1-.8l.8.1v.3h-.7c-.5 0-.7 0-.7.4 0 .8 1.6.3 1.6 1.4 0 .5-.4.8-1 .8zm-10.9-2.7v2.6h-.3v-2.6h-1v-.3h2.4v.3h-1.1zm-4 0c-.7 0-1 .5-1 1.1 0 .6.3 1.2 1 1.2s1-.6 1-1.2-.3-1.2-1-1.2zm0 2.6c-1 0-1.4-.7-1.4-1.5s.5-1.5 1.4-1.5c.9 0 1.4.7 1.4 1.5s-.5 1.5-1.4 1.5zm-3.5 0v-1.4h-1.6v1.4h-.3v-3h.3v1.3h1.6V34h.4v2.9h-.4zm15.2-22.1c8.2.6 13.7-2 18.4-6.5-3.6 6.3-11.1 8.5-18.4 6.5m-18 13.8c-2.8 0-4.8-4.8-6.7-6.3v6.3H2v-8.7h.7c2.4 0 4.7 5 6.7 6.6v-6.6h1.7v8.7h-.7zm8.8.2c-2.8 0-4.6-1.9-4.6-4.5 0-2.7 1.8-4.6 4.6-4.6 2.9 0 4.6 2 4.6 4.6 0 2.6-1.7 4.5-4.6 4.5m0-7.5c-1.8 0-2.8 1.2-2.8 3s1 2.9 2.8 2.9c1.9 0 2.8-1.2 2.8-3 0-1.7-1-2.9-2.8-2.9m11.7 7.4H30l-4.3-8.8h2l2.7 6 2.7-6h2zm10.9.1c-2.9 0-4.6-1.9-4.6-4.5 0-2.7 1.7-4.6 4.6-4.6 2.8 0 4.5 2 4.5 4.6 0 2.6-1.7 4.5-4.5 4.5m0-7.5c-1.9 0-2.9 1.2-2.9 3s1 2.9 2.9 2.9c1.8 0 2.8-1.2 2.8-3 0-1.7-1-2.9-2.8-2.9m11.3.1v7.2h-1.7v-7.2h-3.2v-1.5h8v1.5zm9.6 7.4c-2.4 0-3.6-.8-3.6-3.1v-5.8h6.3v1.6h-4.7v1.9h4.4v1.6h-4.4v.7c0 1.2.7 1.5 2 1.5s2 0 2.7-.2v1.6c-.7 0-1.3.2-2.7.2m9.7 0c-2.4 0-3.4-.9-3.4-3.2v-5.7h1.7v5.7c0 1.2.5 1.6 1.9 1.6l2.6-.2v1.6l-2.8.2" fill="#171F60"/></g></svg>