<svg width="77" height="46" xmlns="http://www.w3.org/2000/svg"><g fill="none" fill-rule="evenodd"><path fill-opacity=".01" fill="#F2F1F0" d="M0 0h77v46H0z"/><path d="M29.7 26.6c-.5 0-1 0-1.3-.2l-1.2-.5c-.3 0-.4.2-.4.5h-.3v-2.6h.3c.4 1.6 1.4 2.5 2.8 2.5s2.2-.6 2.2-1.4c0-1-.6-1.2-2.7-1.3-1.7 0-2.5-1-2.5-2.3 0-1.3 1-2.4 2.6-2.4l1.2.2 1.3.6c.2 0 .3-.1.3-.6h.3v2.4H32a2.8 2.8 0 00-2.7-2.2c-1.2 0-1.8.5-1.8 1.2 0 1.1 1.4 1 2.6 1.1 1.6.2 2.6.9 2.6 2.5 0 1.5-1.2 2.5-3 2.5m7-.2v-.3h.7v-3.5c0-.7-.4-1.1-1-1.1s-1.1.5-1.1 1v3.6h.6v.3h-3v-.3h.7v-6.6h-.7V19h2.4v2.6a2 2 0 011.6-.7c1.7 0 2.2.9 2.2 2v3h.6v.4h-3m3-2.5c0-1.8 1.3-2.9 3-2.9s2.5 1.1 2.6 2.8h-3.8c0 1.5.6 2.3 1.6 2.3.7 0 1.9-.4 1.9-1.7h.3c0 1.2-1 2.2-2.6 2.2-1.7 0-3-1-3-2.7m4.1-.4c0-1.1-.2-2.2-1-2.2s-1.3 1-1.3 2.1h2.3m6-2a.7.7 0 00-.4 0c-1.2 0-1.6 1-1.6 2.2v2.5h.7v.3h-3v-.3h.6v-4.6h-.6v-.3h2.3v.5c.4-.4.8-.7 1.6-.7.5 0 1.1.4 1.1 1.2 0 .5-.3.8-.8.8a.8.8 0 01-.8-.8c0-.4.4-.8.8-.8m2.7 1.1a.8.8 0 01-.8.8c-.5 0-.7-.4-.7-1 0-.8 1-1.3 2.4-1.3 2 0 2.5.8 2.5 2.3v2c0 .4 0 .7.3.7.4 0 .5-.4.5-1.2h.3v.1c0 1.5-.7 1.7-1.5 1.7-.6 0-1-.3-1.3-.9-.3.6-1 .9-1.7.9-1.3 0-1.9-.7-1.9-1.5 0-1.4 1.6-1.4 2.6-1.7.6-.2 1-.5 1-1 0-.6-.6-1-1.3-1-.5 0-.9.2-1 .3a.8.8 0 01.6.8m1.6.9l-.8.4c-.8.4-1 .7-1 1.3 0 .5.3 1 .8 1s1-.4 1-.9v-1.8m3.4 1.5v-3.4h-.7v-.3c1 0 1.7-.7 2-1.8h.3v1.8h1v.3h-1v3.8c0 .4.3.7.6.7.4 0 .6-.4.6-1.2h.3v.1c0 1.4-.6 1.7-1.6 1.7s-1.5-.3-1.5-1.7m6.3 1.7c-1.7 0-3-1-3-2.7 0-1.8 1.3-2.9 3-2.9 1.8 0 2.8 1 2.8 2.9 0 1.7-1.2 2.7-2.8 2.7m0-5.3c-1 0-1.3 1-1.3 2.6s.4 2.4 1.2 2.4c.9 0 1.3-.8 1.3-2.4 0-1.7-.4-2.6-1.3-2.6m7 5.1v-.3h.6v-3.5c0-.7-.3-1.1-1-1.1-.5 0-1.1.5-1.1 1v3.6h.6v.3h-3v-.3h.7v-4.6h-.7v-.3h2.4v.5a2 2 0 011.6-.7c1.7 0 2.2.9 2.2 2v3h.7v.4h-3m-60 2l-1 .2H9s-.2 0 0 .2l.2.2c.7.3 1.3.1 2-.2l.4-.1-.2-.3c-.4-.6-.9-1-1.5-1.2-.3-.2-.4 0-.3 0l.6 1a.8.8 0 00.4.2m1-.3l.4-.7.3.7a.4.4 0 01-.7 0m0 1c0 .3.3.6.4.8l.3-.7a.4.4 0 00-.7 0" fill="#000"/><path d="M8.7 27.6l-1-.1s-.4 0-.6-.2c0 0-.1-.2 0 .1l.1.3c.5.5 1.1.5 1.8.5h.6l-.2-.4c-.2-.6-.5-1.2-1-1.6-.2-.2-.3-.1-.3 0 .2.2.1.6.3 1a1 1 0 00.3.4" fill="#000"/><path d="M7 26.2c-.2-.3-.5-.3-.7-.4-.1 0-.4-.1-.5-.4 0 0-.2-.1-.1.1v.3c.4.6.9.9 1.6 1 .1 0 .4.2.5.1l-.1-.3a3 3 0 00-.4-1.7c-.2-.3-.3-.3-.3-.2v1.5" fill="#000"/><path d="M6.1 24.4l-.6-.5s-.3-.3-.3-.5c0 0-.1-.2-.2 0v.3c.1.7.5 1 1.1 1.4l.4.2V25c.2-.6.3-1.2.2-1.7 0-.3-.2-.3-.2-.2 0 .3-.3.5-.4 1a.8.8 0 000 .3" fill="#000"/><path d="M5.8 22.5c0-.3-.3-.6-.4-.7v-.6s-.1-.2-.2 0l-.1.3c-.2.6 0 1 .5 1.5l.2.4s0-.2.2-.3c.3-.4.6-.9.7-1.4l-.1-.3-.7.7a.6.6 0 00-.1.4" fill="#000"/><path d="M6 20.6L6 20v-.5s0-.2-.1 0l-.2.2c-.2.5-.1 1 0 1.5.2.1.2.4.2.4l.2-.2c.5-.4.9-.7 1-1.2v-.3l-.7.5a.5.5 0 00-.3.3" fill="#000"/><path d="M6.8 19v-.7c0-.1 0-.4.2-.6 0 0 0-.1-.1 0a.7.7 0 00-.2.1c-.4.5-.5 1-.4 1.5v.5l.3-.2c.5-.2 1-.4 1.3-.8v-.3l-.8.3a.6.6 0 00-.3.2" fill="#000"/><path d="M8 17.7l.2-.6.3-.4s.1-.1-.1 0h-.2c-.5.2-.7.6-.8 1.1 0 .1-.1.4 0 .4h.2c.5 0 1-.1 1.3-.4.2 0 .2-.2.1-.2h-.8a.5.5 0 00-.3 0" fill="#000"/><path d="M9.2 16.8c.2-.1.3-.3.3-.4 0 0 .2-.3.4-.3l-.1-.1a.5.5 0 00-.2 0c-.4.1-.7.4-.9.9 0 0-.2.2-.1.3H10c.2-.1.2-.2.1-.2l-.6-.2a.5.5 0 00-.3 0" fill="#000"/><path d="M11.2 16.1c-.1.3-.5.4-.6.4 0 0-.4.2-.7 0 .2-.3.5-.4.6-.4h.7m2.9 3a.4.4 0 00.5-.3.4.4 0 000-.2h.3V21h-.2c-.4-1-1.3-2-2.4-2.2-1-.2-2.2-.1-2.9.8-.1.2 0 .8.3 1 1 .6 2.3.3 3.7.5.7.1 1.5.5 1.9 1.3.3.8.2 1.6 0 2.2-.8 1.2-2.2 1.4-3.1 1.4-1 0-1.8-.5-2.6-.7a.4.4 0 00-.5.2.5.5 0 000 .2h-.3v-2.5H9c.2 1.1 1.2 2 2 2.2 1.1.4 2.2.3 3-.3.3-.2.5-.7.3-1.1-.1-.6-1.1-.8-1.8-.8-1.6 0-3.4 0-4-1.7-.2-.8 0-1.7.5-2.3 1-1 2.6-1 3.8-.6.5 0 .7.3 1.2.4m-.8 9.4l1 .2h.6s.2 0 0 .2a1 1 0 01-.2.2c-.7.3-1.3.1-2-.2l-.4-.1.2-.3c.4-.6.9-1 1.5-1.2.3-.2.4 0 .3 0l-.6 1a.8.8 0 01-.4.2" fill="#000"/><path d="M15.3 27.6l.9-.1s.4 0 .6-.2c0 0 .2-.2 0 .1l-.1.3c-.5.5-1 .5-1.8.5h-.6l.2-.4c.2-.6.5-1.2 1-1.6.2-.2.3-.1.3 0l-.3 1a1 1 0 01-.2.4" fill="#000"/><path d="M16.8 26.2c.3-.3.6-.3.8-.4.1 0 .4-.1.5-.4 0 0 .2-.1.2.1l-.1.3c-.3.6-.9.9-1.6 1l-.4.1v-.3c0-.6.1-1.2.4-1.7.2-.3.3-.3.3-.2v1a.9.9 0 010 .5" fill="#000"/><path d="M17.8 24.4l.6-.5.4-.5s0-.2.1 0v.3c0 .7-.5 1-1 1.4-.2 0-.4.3-.5.2V25a3 3 0 01-.2-1.7c0-.3.2-.3.2-.2 0 .3.3.5.4 1v.3" fill="#000"/><path d="M18.1 22.5l.4-.7c0-.1.2-.3.1-.6 0 0 0-.2.2 0v.3c.2.6 0 1-.4 1.5l-.3.4-.1-.3c-.4-.4-.7-.9-.7-1.4v-.3l.7.7a.5.5 0 01.1.4" fill="#000"/><path d="M17.9 20.6l.1-.7v-.5s0-.2.2 0l.1.2c.3.5.2 1 0 1.5l-.2.4-.2-.2c-.5-.4-.8-.7-1-1.2v-.3l.8.5a.6.6 0 01.2.3" fill="#000"/><path d="M17.1 19v-.7c0-.1 0-.4-.2-.6 0 0 0-.1.2 0l.2.1c.3.5.4 1 .3 1.5v.5l-.3-.2c-.5-.2-1-.4-1.3-.8v-.3l.9.3a.6.6 0 01.2.2" fill="#000"/><path d="M16 17.7l-.2-.6-.3-.4s-.2-.1 0 0h.3c.4.2.6.6.7 1.1 0 .1.2.3.1.4h-.2c-.5 0-1-.1-1.3-.4-.2 0-.2-.2-.2-.2H16" fill="#000"/><path d="M14.7 16.8l-.3-.4-.3-.3s-.1 0 0-.1h.2c.5.1.7.4.9.8l.1.3h-.2a2 2 0 01-1.1 0l-.2-.1.7-.2h.2" fill="#000"/><path d="M12.7 16.1c.2.3.5.4.6.4 0 0 .4.2.7 0-.1-.3-.5-.4-.6-.4h-.7" fill="#000"/></g></svg>