<svg width="77" height="46" xmlns="http://www.w3.org/2000/svg"><g fill="none" fill-rule="evenodd"><path fill-opacity=".01" fill="#F2F1F0" d="M0 0h77v46H0z"/><path d="M12.3 19.6c-.5-1-1.3-1.5-2.4-1.5a2.5 2.5 0 00-2.5 2.5c0 1.2.7 1.7 1.7 2.2l1.6.8c.4.3.6.5.6 1 0 .7-.6 1.2-1.3 1.2-.8 0-1.2-.5-1.6-1.1l-1.4.6c.5 1.3 1.7 2 3 2 1.6 0 3-1.2 3-2.9 0-1.3-1-2-2-2.4-1-.5-2-.8-2-1.6 0-.5.4-.8.9-.8.4 0 .9.3 1 .7l1.4-.7zm2.7-1.2h-1.9l4.4 8.9 2.5-5.8 2.6 5.8 4.3-9h-1.8l-2.5 5.5-2.6-6-2.5 6zM28.1 27h1.7v-8.6h-1.7V27zm.9-13.7c-.7 0-1.2.5-1.2 1.1 0 .6.5 1.1 1.2 1.1a1.1 1.1 0 001.1-1c0-.7-.5-1.2-1.1-1.2zm7.6 6.3c-.5-1-1.3-1.5-2.4-1.5a2.5 2.5 0 00-2.5 2.5c0 1.2.7 1.7 1.6 2.2l1.6.8c.4.3.7.5.7 1 0 .7-.7 1.2-1.4 1.2s-1.2-.5-1.5-1.1l-1.4.6c.4 1.3 1.7 2 3 2 1.5 0 3-1.2 3-2.9 0-1.3-1-2-2-2.4-1-.5-2-.8-2-1.6 0-.5.4-.8.8-.8.5 0 1 .3 1.1.7l1.4-.7m7 0c-.4-1-1.3-1.5-2.3-1.5a2.5 2.5 0 00-2.6 2.5c0 1.2.7 1.7 1.7 2.2l1.6.8c.4.3.6.5.6 1 0 .7-.6 1.2-1.3 1.2-.8 0-1.2-.5-1.6-1.1l-1.4.6c.5 1.3 1.8 2 3 2 1.6 0 3-1.2 3-2.9 0-1.3-1-2-2-2.4-1-.5-2-.8-2-1.6 0-.5.4-.8.9-.8s.9.3 1 .7l1.4-.7m6.2-1.5c-2.5 0-4.6 2-4.6 4.6s2 4.6 4.6 4.6c2.6 0 4.6-2 4.6-4.6 0-2.6-2-4.6-4.6-4.6m0 1.6a3 3 0 013 3c0 1.6-1.3 3-3 3s-3-1.4-3-3a3 3 0 013-3m8 .2h1.7v-1.5h-1.7V15h-1.6v3.3h-1v1.5h1v7h1.6zM68 23v-.2c0-2.6-1.3-4.6-4-4.6-2.8 0-4.2 2-4.2 4.6 0 2.6 1.6 4.6 4.2 4.6 1.7 0 3.2-.9 4-2.4l-1.4-.8c-.6 1-1.3 1.7-2.5 1.7-1.6 0-2.6-1.4-2.6-2.9H68zm-6.4-1.2a2.5 2.5 0 012.4-2.2c1.3 0 2.2.9 2.4 2.2h-4.8zm7.8 5.3h1.7V11h-1.7z" fill="#000"/><path fill="#EC2127" d="M47 16.4l1 .9 1.9-1.8 1.9 1.8 1-.9-3-2.7z"/><path fill="#EB2328" d="M9.5 30.6v-1.8H9v4.4h.5v-2h2v2h.6v-4.4h-.5v1.8zm6-.2c-.8 0-1.4.6-1.4 1.5 0 .8.6 1.4 1.4 1.4.8 0 1.5-.6 1.5-1.5 0-.8-.7-1.4-1.5-1.4m0 .5c.5 0 1 .4 1 1 0 .5-.5.9-1 .9a1 1 0 01-1-1c0-.5.5-.9 1-.9m4 0h.5v-.4h-.5v-1h-.6v1h-.2v.5h.2v2.2h.6zm4.6 1c0-.9-.4-1.5-1.3-1.5s-1.3.6-1.3 1.5c0 .8.5 1.4 1.3 1.4.5 0 1-.3 1.3-.8l-.5-.2c-.2.3-.4.5-.8.5-.5 0-.8-.4-.8-.9h2zm-2-.4c0-.3.3-.6.7-.6.4 0 .7.2.8.6H22zm3.9 1.7h.5v-5H26zm4.2-2.3a.8.8 0 00-.7-.5.8.8 0 00-.8.8c0 .4.2.5.5.7l.5.3.2.2c0 .3-.2.4-.4.4-.3 0-.4-.1-.5-.3l-.5.2c.2.4.6.6 1 .6.5 0 .9-.4.9-1 0-.3-.3-.5-.6-.7-.3-.1-.7-.2-.7-.5l.3-.2a.4.4 0 01.4.2l.4-.2m6.6.1l1 1.2c-.3.3-.7.6-1 .6a.8.8 0 01-.9-.8c0-.4.5-.7.8-1zm0-.6v-.2c-.2-.2-.3-.3-.3-.6 0-.2.2-.4.5-.4.2 0 .5.1.5.4 0 .4-.3.5-.6.7zm1.7 2.8h.7l-.8-1 .5-.6-.3-.4-.5.6-1-1c.4-.3.9-.7.9-1.1 0-.6-.5-1-1-1-.6 0-1 .4-1 1 0 .4.2.7.4 1l-.2.2c-.4.2-.8.6-.8 1.1 0 .8.6 1.3 1.3 1.3.6 0 1-.3 1.3-.7l.5.6zm7-1.9c.5 0 1-.6 1-1.2 0-.4-.3-.8-.6-1-.4-.3-.8-.3-1.2-.3h-.6v4.4h.5v-1.8h.2l1.3 1.8h.7l-1.4-1.9zm-.9-2h.2c.5 0 1.1.1 1.1.8 0 .7-.6.8-1.1.8h-.2v-1.6zM51 32c0-.9-.4-1.5-1.3-1.5s-1.3.6-1.3 1.5c0 .8.5 1.4 1.3 1.4.5 0 1-.3 1.3-.8l-.5-.2c-.2.3-.4.5-.8.5-.5 0-.8-.4-.8-.9h2zm-2-.4c0-.3.3-.6.7-.6.4 0 .7.2.7.6H49zm5.4-.6a.8.8 0 00-.8-.5.8.8 0 00-.8.8c0 .4.2.5.5.7l.6.3.1.2c0 .3-.1.4-.4.4-.2 0-.3-.1-.5-.3l-.4.2c.1.4.5.6 1 .6.4 0 .9-.4.9-1 0-.3-.3-.5-.7-.7-.3-.1-.6-.2-.6-.5l.3-.2c.1 0 .3 0 .3.2l.5-.2m3.3-.5c-.8 0-1.4.6-1.4 1.5 0 .8.6 1.4 1.4 1.4.8 0 1.5-.6 1.5-1.5 0-.8-.7-1.4-1.5-1.4m0 .5c.5 0 1 .4 1 1 0 .5-.5.9-1 .9a1 1 0 01-.9-1c0-.5.4-.9 1-.9m3.8-.4h-.5v2.7h.5v-1.3c0-.5.1-1 .7-1l.3.1.2-.5a.8.8 0 00-.4 0c-.4 0-.6.1-.7.4v-.4m3.6.5h.5v-.5h-.5v-1h-.6v1h-.2v.5h.2v2.2h.6zm3.7-.1a.8.8 0 00-.7-.5.8.8 0 00-.8.8c0 .4.2.5.5.7l.5.3.2.2c0 .3-.2.4-.4.4-.3 0-.4-.1-.5-.3l-.5.2c.2.4.6.6 1 .6.5 0 1-.4 1-1 0-.3-.4-.5-.7-.7-.3-.1-.6-.2-.6-.5 0-.1 0-.2.2-.2a.4.4 0 01.4.2l.4-.2"/></g></svg>