<svg width="77" height="46" xmlns="http://www.w3.org/2000/svg"><g fill="none" fill-rule="evenodd"><path fill-opacity=".01" fill="#F2F1F0" d="M0 0h77v46H0z"/><path d="M48.7 32.1h-.5v5.3h3.4V37h-2.9v-4.8zm-14 .5h1.6v4.8h.5v-4.8h1.7V32h-3.9v.5zM50.8 8h-3.3l-4.2 9.7-4.9-10.3-4.8 10.3L29.6 8h-3.3l7.3 17 5-10.7L43.3 25l7.5-17zm-9 27h2.7v-.5h-2.7v-2h3v-.4h-3.5v5.3H45V37H42v-2zm14.3-.4l-1.1-.3c-.3-.1-.9-.3-.9-1s.7-.9 1.2-.9 1 .2 1.2.5l.2.5.5-.3c-.1-.2-.5-1.1-1.8-1.1-.9 0-1.8.3-1.8 1.4 0 1 .9 1.2 1.6 1.4l1.3.5c.1 0 .3.3.3.7 0 .5-.5 1.1-1.5 1.1-.5 0-1-.2-1.3-.7l-.1-.6-.5.3c0 .5.3.8.7 1.1.2.2.6.3 1.2.3 1.4 0 2-.8 2-1.5 0-1-1-1.3-1.2-1.4zm-31.3-.1h-3.3V32h-.5v5.3h.5V35h3.3v2.5h.5v-5.3h-.5v2.4zm5.4-2.5c-1.6 0-2.3 1.3-2.3 2.8 0 .9.3 1.6.6 2 .5.5 1 .7 1.7.7.4 0 1 0 1.5-.6s.7-1.4.7-2.2c0-1.2-.5-2.7-2.2-2.7zm0 5c-1.4 0-1.8-1.3-1.8-2.2 0-1 .4-2.4 1.8-2.4 1.3 0 1.7 1.4 1.7 2.3 0 .5-.1 2.4-1.8 2.4z" fill="#000"/></g></svg>