<svg xmlns="http://www.w3.org/2000/svg" width="150" height="90"><g fill="none"><path fill="#F2F1F0" fill-opacity=".01" d="M0 0h149.3v89.2H0z"/><g fill="#1E407C"><path d="M122.3 40.5c-1.3 0-1.7 1-1.8 2.1l3.2-.5c0-.8-.4-1.6-1.4-1.6zm3.2 5.6h.1v.3c0 1.5-1.4 1.8-2.5 1.8-2.8 0-4.8-1.8-4.8-4.6 0-2.6 1.6-4.4 4.2-4.4 2 0 3.5 1.3 3.5 3.3l-.1.7-5.4.7c.2 1.6 1.3 2.7 3 2.7.7 0 1.4-.1 2-.5zm-61-5.6c-1.3 0-1.7 1-1.8 2.1l3.2-.5c0-.8-.5-1.6-1.5-1.6zm3.1 5.6a.1.1 0 01.1 0l.1.3c0 1.5-1.4 1.8-2.6 1.8-2.7 0-4.8-1.8-4.8-4.6 0-2.6 1.6-4.4 4.2-4.4 2 0 3.5 1.3 3.5 3.3v.7l-5.4.7c.2 1.6 1.2 2.7 3 2.7.7 0 1.4-.1 2-.5z"/><path d="M118.4 46.4v.3c0 1.1-1.2 1.5-2 1.5-1.9 0-3-1-3-2.9V41h-1v-1.5h1v-1.7h2.4v1.7h2.3V41h-2.3v4.2c0 .9.5 1.4 1.4 1.4.4 0 .8 0 1-.3h.2zm-37.3 0v.3c0 1.1-1.2 1.5-2 1.5-1.9 0-3-1-3-2.9V41h-1v-1.5h1v-1.7h2.4v1.7h2.3V41h-2.3v4.2c0 .9.5 1.4 1.4 1.4.4 0 .8 0 1-.3h.2zm45-5.8c.2-.8.9-1.3 1.7-1.3 1 0 1.6.6 1.6 1.6v.3c.7-1 1.4-2 2.7-2h.4l-.1 2.3a2.3 2.3 0 00-.8 0c-.8 0-1.5.6-2.1 1.2V48h-2.4v-6.6c0-.3 0-.7-.5-.7a.8.8 0 00-.3 0h-.1zm15.4 6.1h.1v.1c0 .7-.6 1.3-1.6 1.3s-1.7-.7-1.7-2v-3.9c0-.6-.3-.9-.8-.9-.9 0-1.6.8-2 1.3V48H133v-8.4h2.3V41c1-1 2-1.9 3.4-1.9.4 0 1 .2 1.3.5.5.4.6 1.2.6 2V46c0 .5.1.8.5.8a.5.5 0 00.3 0zm-35.4-.5a4 4 0 002 .5c.8 0 1.4-.3 1.4-1 0-.5-.6-.8-1.4-1.2-1-.6-2-1.1-2-2.6 0-1.3 1-2.7 3.6-2.7l1.8.2-.3 1.6a5.4 5.4 0 00-1.5-.2c-.9 0-1.3.3-1.3.8s.6.8 1.4 1.2c1 .6 2 1.2 2 2.6 0 1.2-.8 2.8-3.5 2.8-1.5 0-2.4-.6-2.4-1.7v-.3h.2zm-37.3 0c.5.3 1.2.5 2 .5.7 0 1.4-.3 1.4-1 0-.5-.6-.8-1.4-1.2-1.1-.6-2-1.1-2-2.6 0-1.3 1-2.7 3.5-2.7.7 0 1.3 0 1.9.2l-.3 1.6a5.5 5.5 0 00-1.6-.2c-.8 0-1.3.3-1.3.8s.6.8 1.4 1.2c1.1.6 2.1 1.2 2.1 2.6 0 1.2-.8 2.8-3.5 2.8-1.5 0-2.4-.6-2.4-1.7v-.3a.1.1 0 01.2 0zm33-5.7c-1.3 0-1.7 1-1.8 2.1l3.2-.5c0-.8-.5-1.6-1.4-1.6zm3.2 5.6h.1v.3c0 1.5-1.4 1.8-2.6 1.8-2.7 0-4.7-1.8-4.7-4.6 0-2.6 1.6-4.4 4.2-4.4 2 0 3.4 1.3 3.4 3.3v.7l-5.4.7c.2 1.6 1.3 2.7 3 2.7.7 0 1.4-.1 2-.5zm-51.7-8v3.4c1.2 0 1.8-.3 2.3-.6.5-.4.8-.8.9-1.4a1.2 1.2 0 00-.3-.8l-1-.5a4.6 4.6 0 00-1-.1 7 7 0 00-.9 0zm0 8.3l1 .1a3 3 0 001.7-.4c.3-.2.6-.5.7-.8L57 44c-.1-.8-.6-1.4-1.5-1.6a3.6 3.6 0 00-1-.1c-.3 0-.8 0-1.2.2v3.8zm.7 1.7a18.5 18.5 0 01-3.2-.3V37c1.5-.3 2.7-.4 3.7-.4 1.3 0 2.1.1 3 .5.4.2.8.5 1 1a2.1 2.1 0 010 2.2c-.3.5-.7.8-1.3 1.1l1 .4c.6.4 1 .8 1.3 1.3.2.4.3 1 .2 1.6a3.5 3.5 0 01-2 2.8c-.8.3-1.6.5-2.5.6H54zm40-9.8a.7.7 0 01.4 0c.5 0 .8 1 .8 2.8 0 .8-.2 2-.6 3.1-.2.6-.4 1-.7 1.3-.2.3-.5.5-.8.5a1.1 1.1 0 01-.3 0l-1.3-9.2h-2.7l1 6c0 .5-.2 1.3-.5 2-.4.6-.7 1-1.2 1a2.2 2.2 0 01-.4.1l-1.4-9.1h-2.6L85.5 48a4.5 4.5 0 002 0c.6-.1 1.3-.5 1.8-1.1a5 5 0 00.9-1.7l.4 2.8h.1a5 5 0 001.5 0 3.7 3.7 0 001.9-.5c.5-.3 1-.8 1.4-1.4.5-.8 1-1.9 1.3-3 .2-1.2.4-2.3.4-3.4 0-1-.2-1.7-.5-2.2-.3-.6-.8-1-1.4-1-.4 0-.7.2-1 .5-.2.2-.5.5-.5 1.2 0 .1 0 .1.1 0zM66.4 58.7v-2.8H64v2.8h-1.4v-6.2h1.4V55h2.6v-2.4H68v6.2zm4.8-4c-.8 0-1 .9-1 1.5s.2 1.8 1 1.8 1-1 1-1.7c0-.6-.2-1.6-1-1.6zm0 4.1c-1.5 0-2.3-1.1-2.3-2.5 0-1.5 1-2.4 2.4-2.4s2.2.9 2.2 2.3-.8 2.6-2.3 2.6zm44.5-4c-.8 0-1 .8-1 1.4 0 .6.1 1.8 1 1.8.8 0 1-1 1-1.7 0-.6-.2-1.6-1-1.6zm0 4c-1.6 0-2.3-1.1-2.3-2.5 0-1.5 1-2.4 2.4-2.4s2.2.9 2.2 2.3-.9 2.6-2.4 2.6zm-36-4.2c-.6 0-.8.5-.9 1.2l1.8-.3c0-.5-.3-.9-.8-.9zm1.8 3l.1.1a1 1 0 010 .1c0 .8-.8 1-1.4 1-1.5 0-2.6-1-2.6-2.5 0-1.4.9-2.4 2.3-2.4 1.1 0 1.9.7 1.9 1.8v.4l-3 .4c.1.8.7 1.4 1.7 1.4.3 0 .7 0 1-.2zm25.5-3c-.7 0-1 .5-1 1.2l1.7-.3c0-.5-.2-.9-.7-.9zm1.7 3v.2c0 .8-.7 1-1.3 1-1.5 0-2.6-1-2.6-2.5 0-1.4.8-2.4 2.3-2.4 1 0 1.9.7 1.9 1.8v.4l-3 .4c.1.8.7 1.4 1.7 1.4.3 0 .7 0 1-.2zm-31.3.2v.2c0 .6-.7.8-1.2.8-1 0-1.6-.6-1.6-1.6V55h-.5V54h.5v-.9H76v1h1.3v.8H76v2.3c0 .5.3.8.8.8l.6-.2zm48.3 0v.2c0 .6-.6.8-1.1.8-1 0-1.6-.6-1.6-1.6V55h-.5V54h.5v-.9h1.3v1h1.3v.8h-1.3v2.3c0 .5.3.8.8.8l.6-.2zm-7.1-3.1c0-.5.4-.7.8-.7.6 0 1 .3 1 .8v.2c.3-.6.7-1.1 1.4-1.1h.2v1.3a1.2 1.2 0 00-.5 0c-.4 0-.8.3-1.1.6v2.9h-1.3V55c0-.2 0-.4-.3-.4a.4.4 0 00-.2 0zm-33.7 3c.3.2.7.3 1.1.3.4 0 .8-.2.8-.5s-.3-.5-.8-.7c-.6-.3-1-.6-1-1.4 0-.7.5-1.5 1.9-1.5l1 .1-.2.9a3 3 0 00-.8-.1c-.5 0-.7.1-.7.4 0 .3.3.5.7.7.6.3 1.2.6 1.2 1.4 0 .6-.5 1.5-2 1.5-.8 0-1.2-.3-1.2-1v-.1zm24.7 0c.3.2.7.3 1 .3.5 0 .8-.2.8-.5s-.3-.5-.7-.7c-.6-.3-1.1-.6-1.1-1.4 0-.7.6-1.5 2-1.5l1 .1-.2.9a3 3 0 00-.9-.1c-.4 0-.7.1-.7.4 0 .3.4.5.8.7.6.3 1.1.6 1.1 1.4 0 .6-.5 1.5-1.9 1.5-.8 0-1.3-.3-1.3-1v-.1zm16.5 0c.3.2.7.3 1.1.3.4 0 .8-.2.8-.5s-.3-.5-.8-.7c-.6-.3-1-.6-1-1.4 0-.7.5-1.5 1.9-1.5l1 .1-.2.9a3 3 0 00-.8-.1c-.5 0-.7.1-.7.4 0 .3.3.5.7.7.6.3 1.2.6 1.2 1.4 0 .6-.5 1.5-2 1.5-.8 0-1.3-.3-1.3-1v-.1h.1zm-24.9-4.4h-.5v2h.5c.7 0 1.2-.3 1.2-1s-.5-1-1.2-1zm3.4 4.7c0 .5-.4.7-.9.7-1.3 0-2-1.3-2.4-2.7h-.6v2.7h-1.4v-6.1a38.3 38.3 0 012 0c1.2 0 2.5.2 2.5 1.6 0 .8-.6 1.4-1.3 1.6.5.9 1.3 2.2 2 2.2h.1zm-12.4-2a1 1 0 00-.3.7c0 .7.7 1.3 1.4 1.3.3 0 .5 0 .7-.2-.6-.6-1.3-1.2-1.8-1.9zm2.3-.7h-.1a.7.7 0 010-.2c0-.4.3-.6.7-.6.7 0 1.2.7 1.2 1.4 0 .6-.3 1.2-.7 1.7l1.3 1H95l-.4-.3a3.4 3.4 0 01-1.7.5c-1 0-2.2-.7-2.2-1.8 0-.8.4-1.3 1-1.6a2 2 0 01-.4-1.2c0-1.2 1-1.7 2.1-1.7h1.2l-.1 1a2.9 2.9 0 00-.9-.1c-.5 0-1 .3-1 .8 0 .8 1.6 2.1 2.4 2.8l.2-.8c0-.5-.3-1-.6-1a.4.4 0 00-.1.1zM84.4 58h.1c0 .4-.4.7-.9.7-.6 0-.9-.4-.9-1v-5.5H84v5.4c0 .3 0 .4.3.4a.4.4 0 00.1 0zM31.7 38.6h.5c1 .2 1.3 1.8 1.3 4-.1 2.7-1.2 7-3 7H30l-2-12.8h-3.4l1.4 8.3c-.3 1.7-1 4.1-2.5 4.4h-.7L21 36.8h-3.4L20 52.2a5.8 5.8 0 002.6 0c2-.4 3.4-2.3 3.8-4.3l.8 4.3 2 .1c2 0 3.4-1 4.5-2.7 1.6-2.4 2.3-6 2.3-9 0-2.3-.7-4.1-2.5-4.1-1 0-1.9.7-2 2v.1h.2zM8.4 43.4c1.8-.1 2.6-.5 3.4-1 .8-.5 1.1-1.2 1.2-1.9 0-.8-.5-1.7-2-2a8 8 0 00-2.6 0v5zm1.4 7c1.2 0 1.9-.3 2.4-.6a3 3 0 001.5-3c-.2-1.2-1-2-2.1-2.2-.8-.3-2-.3-3.2 0v5.6l1.4.2zm3.8-7.2a6.3 6.3 0 011.7.6c1.6.9 2.2 2.3 2 4-.2 1.5-1.3 2.9-2.8 3.7-1 .4-2.1.7-3.4.8-2 .1-4 0-6.1-.4V37c1.6-.3 3.5-.5 5-.5 1.8 0 3 .2 4.2.7 1.4.7 1.9 1.8 2 2.7 0 1-.6 2.4-2.6 3.3zm29.9-12a163.5 163.5 0 010 26.6.2.2 0 01-.4 0 163.1 163.1 0 010-26.6.2.2 0 01.2-.2s.2 0 .2.2zm100.3 15.1a.7.7 0 00-.1 0v.5h.1c.2 0 .3 0 .3-.2s-.1-.3-.3-.3zm0 .7h-.1v.6h-.3v-1.4h.4c.3 0 .6 0 .6.3 0 .2-.2.4-.3.4.1.4.3.6.4.6l-.1.1c-.3 0-.4-.3-.6-.6zm.1-1c-.5 0-1 .3-1 1 0 .5.5 1 1 1s1-.5 1-1c0-.6-.5-1-1-1zm0 2c-.6 0-1.1-.4-1.1-1 0-.7.5-1.2 1.1-1.2.6 0 1.1.5 1.1 1.1 0 .7-.5 1.2-1.1 1.2z"/></g></g></svg>