<svg width="77" height="46" xmlns="http://www.w3.org/2000/svg"><g fill="none" fill-rule="evenodd"><path fill-opacity=".01" fill="#F2F1F0" d="M0 0h77v46H0z"/><g fill="#000"><path d="M11.9 42l.7-1h-.7c-.8 1.3-2.2 2.7-3.9 2.7-.5 0-1-.2-1-.6 0-.3.2-.5.5-.5.2 0 .3.1.3.4 0 .2-.1.3-.3.3h-.1c0 .3.4.3.6.3 1.5 0 2.5-1.6 3.2-2.5-.8.2-1.5.5-2 1a4 4 0 012.1-1.1c.6-.9 1.9-2.4 3-3-.5.2-.9.4-1.3.4-.7 0-1-.7-1.8-.7s-1.8.8-1.8 1.6c0 .6.4.8.7.8.8 0 1.8-.8 2-1.5-.2.8-1 1.6-1.9 1.6-.6 0-1-.3-1-1 0-.9 1.5-1.8 2.4-1.8.7 0 1.2.7 1.9.7.4 0 .9-.3 1.2-.6v.1c-1.1.9-2 2.1-2.7 3.3h.6l1-1.3a5 5 0 00-.8 1.2h.7c.5-.8 2.7-3.3 3.6-3.3.2 0 .3 0 .3.2 0 1-2.3 2.8-3.3 3-.4.5-1.4 1.8-1.4 2.4 0 .4.3.5.6.5 1.2 0 2.5-1.5 2.5-2.2 0-.2-.1-.4-.4-.4-.5 0-1.2.6-1.5 1 .3-.4 1-1.1 1.5-1.1.4 0 .5.2.5.6 0 1-1.6 2.2-2.5 2.2-.7 0-1-.3-1-.9 0-.6.6-1.5 1-2l-.6.1L12 42H12zm5.2-4.4c-.6 0-2.7 2.6-3 3 1.2-.2 3.2-2 3.2-3H17zm2.5 4.5l-.6.3a.6.6 0 01-.5-.2c-.8 1-1.5 1.5-2.2 1.5a.5.5 0 01-.5-.5c0-.8 1.6-2.4 2.5-2.4.2 0 .3.1.3.3h.1c.2 0 .2 0 .2.2 0 .3-.2.7-.4.9l.5.1s.4 0 .6-.3v.1zm-1-1l-.3-.1c-.4 0-1 .8-2 1.9-.2.2-.2.4-.2.5 0 .1 0 .2.3.2.6 0 1.4-.6 2-1.4a1 1 0 01-.1-.5l.2-.6z"/><path d="M22.3 39.2h.5l-1.1 1.2h.6l-.1.1h-.6l-2.1 2.3-.6.7.2.1c.3 0 .8-.2 2.2-1.5v.1c-1.1 1-1.8 1.5-2.2 1.5-.2 0-.3-.1-.3-.3 0-.3.1-.6.6-1.1l1.6-1.8h-.5v-.1h.6l1.2-1.2z"/><path d="M24 42.3c-.7.7-1.8 1.4-2.7 1.4-.3 0-.6 0-.6-.4 0-1 1.7-2.4 2.7-2.4.2 0 .3.2.3.4 0 .8-1.5 1.3-2.1 1.3-.5.5-.6.7-.6.8 0 .2.2.2.4.2.7 0 1.6-.6 2.7-1.4zm-.6-1.3c-.4 0-.8.4-1.7 1.5.9 0 1.8-.9 1.8-1.3l-.1-.2z"/><path d="M26.4 42.4c-1.3 1.2-2 1.3-2.3 1.3-.4 0-.5-.2-.5-.5 0-1 4.4-5.7 5.3-5.7.1 0 .3.1.3.3 0 1-2.6 2.7-3.9 3.5l-1.5 2.1c0 .2 0 .2.2.2.5 0 1.1-.2 2.1-1.1l.3-.1zm2.5-4.8c-.4 0-1.6 1.2-3.4 3.5 1.7-1.2 3.6-2.4 3.6-3.3l-.2-.2zm5.9 3.4l-2 2.1-.2.4.2.1c.5 0 1.8-1 2.2-1.5l.1.1c-.4.5-1.7 1.5-2.4 1.5-.2 0-.3-.1-.3-.3V43c-.5.5-.9.7-1.3.7-.3 0-.5-.2-.5-.5 0-1.1 1.9-2.3 2.6-2.3.3 0 .5.2.5.4v.2l.5-.5h.6zm-1.5 0c-.4 0-.7.2-2.1 1.7-.4.4-.4.6-.4.7 0 .1.1.2.4.2.7 0 2.4-1.8 2.4-2.3a.3.3 0 00-.3-.3z"/><path d="M36.1 41h.5l-.7.8c.4-.3 1-.8 1.5-.8.3 0 .5.2.5.5 0 .7-1.5 1.7-1.5 2l.2.1c.2 0 .8-.4 2-1.5v.1c-1 1-1.7 1.5-2 1.5-.2 0-.4 0-.4-.3 0-.7 1.5-1.8 1.5-2.1 0-.1-.1-.2-.3-.2-.5 0-2 1.1-3 2.5h-.7l2.4-2.6z"/><path d="M44 38.4h.6L40.3 43l-.4.5.2.1c.5 0 1.2-.4 2.3-1.5v.1c-1.2 1.2-1.7 1.5-2.3 1.5-.2 0-.4 0-.4-.3v-.3c-.3.4-.8.6-1.1.6-.5 0-.6-.2-.6-.5 0-1 1.6-2.2 2.6-2.2.3 0 .5 0 .5.3v.3l3-3.2zm-3.3 2.7c-.4 0-1.7 1-2.2 1.7l-.3.6.4.2c.7 0 2.4-1.8 2.4-2.3 0-.1-.1-.2-.3-.2zm8.4-2.8c0 1.2-1.1 2.5-2.3 2.5-.5 0-.8-.3-.8-.8 0-1.3 2.2-2.6 4.3-2.6.6 0 1 0 1.4.2l.5-.2-.4.2c.4.3.8.7.8 1.2 0 .9-1 1.5-1.9 1.6l.2.4c0 .6-1.4 1.5-1.4 2.3 0 .4.4.5.7.5.8 0 2.1-1.3 2.1-2 0-.3-.2-.4-.4-.4-.4 0-.8.4-1 .6.2-.3.6-.7 1-.7.3 0 .6.1.6.5 0 1-1.3 2.1-2.3 2.1a1 1 0 01-1-1c0-.8 1.4-1.6 1.4-2.3H50c-.3 0-.6-.1-.6-.4-1 1.5-2.4 3.7-4.5 3.7-.6 0-1-.2-1-.7 0-.2.3-.4.4-.4.3 0 .4.2.4.4 0 .3-.4.3-.4.4 0 .1.3.2.7.2 2.2 0 4-5 6.4-6a3 3 0 00-1.1-.1C48 37.5 46 39 46 40c0 .4.2.7.7.7.8 0 2.2-1.4 2.2-2.4h.1zm2.6-.6c-.6.4-1.2.8-2.1 2.2h.3c.3 0 .6 0 .8.4.7-.2 1.5-1 1.5-1.6a1 1 0 00-.5-1zm-1.1 2.6c-.1-.3-.4-.4-.7-.4-.2 0-.3 0-.3.2 0 0 .2.3.5.3h.5zm5.2 2c-.8.7-2 1.4-2.9 1.4-.2 0-.5 0-.5-.4 0-1 1.7-2.4 2.6-2.4.2 0 .4.2.4.4 0 .8-1.5 1.3-2.2 1.3-.5.5-.5.7-.5.8 0 .2.1.2.3.2.8 0 1.8-.6 2.8-1.4zM55 41c-.3 0-.8.4-1.7 1.5 1 0 1.9-.9 1.9-1.3 0-.1 0-.2-.2-.2zm6.8 1.1c-.2.1-.4.3-.7.3-.2 0-.3 0-.4-.2-.9 1-1.6 1.5-2.2 1.5-.3 0-.6-.2-.6-.5 0-.8 1.6-2.4 2.5-2.4.2 0 .4.1.4.3h.1c.1 0 .2 0 .2.2 0 .3-.2.7-.4.9l.4.1c.2 0 .5 0 .6-.3l.1.1zm-1-1l-.3-.1c-.4 0-1 .8-2 1.9l-.3.5c0 .1.1.2.4.2.6 0 1.4-.6 2-1.4a1 1 0 01-.1-.5c0-.2 0-.5.2-.6z"/><path d="M62.7 41h.6L62 42.2l1.1-.4c0-.4.5-.8.8-.8l.2.1c0 .3-.6.7-.9.7 0 .3.1.5.3.5l1.6-.7-1.6.8c-.2 0-.4-.2-.4-.5-.7.1-1.2.5-1.7 1l-.5.7h-.6l2.3-2.6z"/><path d="M67 39.2h.6l-1.1 1.2h.5l-.1.1h-.6l-2.1 2.3-.5.7.1.1c.3 0 1.2-.1 2.7-1.4-1.2 1.2-2.3 1.5-2.7 1.5-.2 0-.3-.1-.3-.3 0-.3.2-.6.7-1.1l1.6-1.8h-.6l.1-.1h.6l1-1.2zM8 27H7v-.3h6V29h-.2c-.2-.7-.3-1.4-1-1.7-.3-.2-.7-.2-1.2-.2H9.5v3.1c1 0 1.5-.2 1.6-1.3h.3v3H11c-.1-1.2-.5-1.4-1.6-1.4v3.3h1v.2H7v-.2h1V27zm5.2 4.1c0-1.3 1.1-2.6 2.5-2.6 1.3 0 2.5 1.3 2.5 2.6 0 1.5-1 3-2.5 3-1.6 0-2.5-1.5-2.5-3zm3.8-.8l-.1-.8c-.2-.5-.5-.8-1.2-.8s-1 .3-1.2.8l-.1.8V33c.2.5.5.9 1.3.9s1-.4 1.2-1l.1-.9v-1.7zm7.4-1.7v.2h-.8v3.4c0 .8-.2 1.2-.5 1.5-.4.2-.8.4-1.6.4-.5 0-1-.2-1.4-.5-.3-.2-.5-.7-.5-1.6v-3.2h-.8v-.2h2.6v.2h-.8v3c0 1 0 2 1.4 2 1 0 1.3-.6 1.3-1.5v-3.5h-.8v-.2h1.9zm2.4 5.1h.8v.2H25v-.2h.8v-5H25v-.1h2.6c1 0 2 0 2 1.2 0 1-1 1.2-1.8 1.3 1.3.2 1.6.9 1.6 2.2 0 .3 0 .6.8.5v.2a2.2 2.2 0 01-.7 0c-.8 0-1.2-.4-1.2-1.2 0-.6-.1-1.1-.3-1.3-.3-.2-.5-.3-.8-.3h-.4v2.5zm0-2.7h.6c.8 0 1-.4 1-1 0-1-.2-1.2-1-1.2h-.6V31zm6.7 3h-.1V32h.3c.2 1 .8 2 2 2 .8 0 1.6-.7 1.6-1.6 0-1-1-1.2-1.7-1.5-.2 0-.5 0-.7-.2-1-.3-1.5-1-1.5-2 0-1.2.8-2 2-2 .6 0 1 .1 1.6.5l.4-.4h.1v2h-.3c-.1-1-.8-1.9-1.8-1.9-.7 0-1.4.6-1.4 1.3 0 .8.6.9 1.2 1l.7.3.7.2c1 .5 1.3 1.2 1.3 2.2 0 1.3-1 2.3-2.3 2.3-.5 0-1.2-.2-1.5-.5l-.6.4zm7.2-5.2V31c.8 0 1.2-.1 1.2-1h.2v2.2H42c0-.8-.3-1-1.2-1v2.4h1.1c1 0 1.3-.6 1.5-1.5h.2V34h-4.6v-.2h.8v-5h-.8v-.1h4.4V30h-.2c-.1-.7-.4-1-.9-1.1l-.7-.1h-.8zm3.4 5.2v-.3h.6l2-5.2h.2l1.8 5.2h.7v.2h-2.5v-.2h.8l-.5-1.4h-1.7l-.5 1.4h.8v.2H44zm1.4-1.9h1.6l-.7-2.2-.9 2.2zm4.7 2h-.1v-1.7h.2c.2.8.6 1.5 1.5 1.5.6 0 1.2-.5 1.2-1.1 0-.8-.7-1-1.3-1.2l-.5-.1c-.7-.2-1-.8-1-1.6s.5-1.4 1.4-1.4c.4 0 .8 0 1.1.4l.3-.4h.2v1.6h-.3c0-.8-.6-1.4-1.4-1.4-.5 0-1 .3-1 .9 0 .6.5.7 1 .8l.5.2.5.1c.7.4 1 .9 1 1.6 0 1-.7 1.8-1.8 1.8a2 2 0 01-1.1-.4l-.4.3zm4.3-3c0-1.3 1.1-2.6 2.5-2.6 1.3 0 2.5 1.3 2.5 2.6 0 1.5-1 3-2.5 3-1.6 0-2.5-1.5-2.5-3zm3.8-.8l-.1-.8c-.2-.5-.5-.8-1.2-.8s-1 .3-1.2.8l-.1.8V33c.2.5.5.9 1.3.9s1-.4 1.2-1v-2.6zm6.5 3.8h-.3L61.2 29v4.7h.7v.2h-1.8v-.2h.8v-5H60v-.1h2l2.4 3.5v-3.3h-.7v-.2h1.8v.2h-.8zm1.8 0h-.2v-1.7h.3c.1.8.6 1.5 1.4 1.5.6 0 1.2-.5 1.2-1.1 0-.8-.7-1-1.2-1.2l-.5-.1c-.8-.2-1.1-.8-1.1-1.6s.6-1.4 1.4-1.4c.5 0 .8 0 1.2.4l.3-.4h.1v1.6h-.2c-.1-.8-.6-1.4-1.4-1.4-.5 0-1 .3-1 .9 0 .6.4.7 1 .8l.4.2.6.1c.6.4.9.9.9 1.6 0 1-.7 1.8-1.7 1.8a2 2 0 01-1.2-.4l-.3.3zm-23-17.3l.2-.2c0-.1 0-.3-.2-.3l-.3.3.3.2z"/><path d="M43.3 16.3h.2v-.2l.2.3.2-.1-.1.2.2.1h-.2l.1.3h-.2l-.1.1-.1-.2-.2.1v-.2l-.2-.1.2-.1zm-6-10.5c.4 0 .7.2.8.7-.5 0-.7-.4-.8-.7zm0-.8c.4 0 .7.2.8.7-.5 0-.7-.3-.8-.7zm0-.7c.5 0 .7.2.8.7-.5 0-.7-.4-.7-.7zm0-.8c.5 0 .8.2.8.7-.5 0-.7-.3-.7-.7zm0-.7c.5 0 .8.2.8.7-.5 0-.7-.3-.7-.7zm.1-.8c.4 0 .7.2.7.7-.4 0-.6-.3-.7-.7z"/><path d="M37.2 22.8h2l-.6-.4L38.2 2l-.4 20.4-.6.3v.1zm5.7-14.3c0 .5-.2.7-.7.7 0-.4.3-.6.7-.6zm0 .7c0 .4-.2.7-.7.7 0-.4.4-.6.8-.7zm-2.3-.7c-.5 0-.7-.3-.7-.6.4 0 .7.2.7.6z"/><path d="M39.4 10.7c-.5 0-.7-.3-.8-.7.4 0 .7.3.7.7zm5 2.1c-.5 0-.8.2-.8.7.4 0 .6-.3.7-.7zm-.7 2.7c.4 0 .7.2.8.6-.5 0-.7-.2-.8-.6zm.8-1c-.4 0-.7-.2-.7-.7.5 0 .7.3.7.7zM32 16.8v-.1l-.2-4v-.1.1l-.3 4.2.1.2 6.6 3.8v-1L32 17z"/><path d="M44.4 16.8v-.1l.2-4v-.1.1l.2 4.2v.2l-6.6 3.8v-1l6.2-3zM33 14l-.1-3.4h-.1l-.1 3.6 5.4 3.2v-.7l-5-2.7z"/><path d="M43.2 14v-.1l.2-3.4.2 3.6-5.4 3.2v-.7l5-2.6zM34.4 11l-.2-2.6-.1 2.8 4 2.5V13l-3.7-2zm7.6 0l.1-2.6.2 2.8-4.1 2.5V13l3.8-2zm-6.5-2.7V6.6h-.1l-.1 2 2.9 1.7v-.5l-2.7-1.4zm1-2.3L36.4 5l-.1 1.2 1.9 1.2V7l-1.7-1zm3.4 0V5l.1 1.2-1.8 1.2V7l1.7-1z"/><path d="M40.8 8.4l.1-1.8.2 2-3 1.7v-.5l2.7-1.4zM40 5.6c.5 0 .7-.3.8-.6-.4 0-.7.2-.8.6zm0-.6c.5 0 .7-.3.7-.7-.3 0-.7.2-.7.7zm0 .3c-.5 0-.7-.3-.8-.7.4 0 .7.3.7.7zm0 .7c-.5 0-.8-.3-.8-.7.4 0 .7.2.7.7zm1.7.6c0 .4-.2.7-.7.7 0-.5.4-.7.7-.7zM41.7 5.9c-.4 0-.7.2-.7.7.4 0 .6-.3.7-.7zm-8.3 2c.4 0 .7.2.8.7-.5 0-.7-.3-.8-.7zm0 .7c.1.4.3.6.8.6 0-.4-.4-.6-.8-.6zm0 .6c0 .4.3.7.7.7 0-.4-.3-.6-.7-.7zm0 .7c0 .4.3.7.7.7 0-.4-.3-.7-.7-.7zm.7 1.4c-.4 0-.7-.3-.7-.7.4 0 .7.2.7.7zm1.2-2.8c-.5 0-.7-.3-.7-.6.4 0 .6.2.7.6zM35 9.7c-.3 0-.7.3-.7.7.5 0 .7-.2.7-.7zm-.7 1.4c.5 0 .7-.3.8-.7-.4 0-.7.2-.8.7zm1.3-.4c0 .4-.3.7-.7.7 0-.5.3-.7.7-.7zm.6.3c-.1.4-.3.7-.8.7 0-.5.4-.7.8-.7zm.5.3c0 .4-.3.6-.8.6.1-.4.4-.6.8-.6zm.6.2c-.1.4-.3.7-.8.7 0-.4.3-.6.8-.7zm-.2 1c.4 0 .6-.3.7-.7-.4 0-.7.2-.7.7zm-1.6-4.1c.5 0 .7-.3.8-.7-.5 0-.7.2-.8.7zm1.3-.4c0 .4-.3.7-.8.7 0-.5.4-.7.8-.7zm.5.3c0 .4-.2.6-.7.7 0-.5.4-.7.7-.7zm.6.3c0 .3-.3.6-.8.6.1-.4.4-.6.8-.6zm-3.4 3c0 .4-.3.6-.8.6 0-.4.4-.6.8-.6zm-.3 1c.1-.5.4-.7.8-.7 0 .4-.3.7-.8.7zm.6.3c0-.5.3-.7.7-.7 0 .4-.3.7-.7.7zm.5.3c0-.5.3-.7.7-.7 0 .4-.3.6-.7.7zm1 .6c.1-.5.4-.7.8-.7 0 .4-.3.7-.8.7zm-.6-5c-.1.4-.3.7-.8.7 0-.5.4-.7.8-.7zm-.3 1c0-.5.4-.7.8-.7 0 .4-.3.7-.8.7zm.6.3c0-.5.3-.6.7-.7 0 .4-.3.7-.7.7zm.5.3c0-.5.3-.6.7-.7 0 .4-.2.7-.7.7zm.5.3c.5 0 .7-.3.8-.7-.4 0-.7.3-.8.7zm-.4-4.2c0 .3-.3.6-.7.7 0-.5.3-.7.7-.7zm-.2 1c0-.5.4-.7.8-.7-.1.4-.3.6-.8.6zm.6.2c0-.4.3-.6.7-.6 0 .4-.3.6-.7.6zm-.7-1.5c-.5 0-.7-.2-.7-.6.3 0 .7.2.7.7zm0-.6c-.4 0-.6-.3-.7-.6.4 0 .7.2.7.6zm0-.6c-.4 0-.6-.3-.7-.7.4 0 .7.2.8.7zm.1.3c.5 0 .7-.3.8-.7-.4 0-.7.3-.8.7zm0 .7c.5 0 .7-.3.8-.7-.4 0-.7.2-.7.7zm-1.8 1.2c0 .4.3.7.7.7 0-.5-.3-.7-.7-.7zm0-.6c0 .3.3.6.8.6 0-.4-.4-.6-.8-.6zm0-.7c.4 0 .7.2.8.7-.5 0-.7-.3-.8-.7zm-2.5 6.9c.3 0 .6.2.7.7-.5 0-.7-.3-.7-.7zm0-2c.4 0 .7.2.8.7-.5 0-.7-.3-.8-.7zm0 .7c.4 0 .7.2.8.7-.5 0-.7-.3-.8-.7zm8.3 2a.2.2 0 00.2-.3.2.2 0 00-.2-.2c-.2 0-.3 0-.3.2s.1.3.3.3z"/><path d="M40 12.9h.3v-.1l.1.2.3-.1-.1.2.2.1h-.2v.3h-.2v.1l-.1-.2-.3.1.1-.2H40l.2-.2zm-.5 2.5c.2 0 .3-.2.3-.3a.2.2 0 00-.3-.2.2.2 0 00-.2.2c0 .1 0 .3.2.3z"/><path d="M39.2 14.8h.3v-.1l.1.2.2-.1v.2l.2.1-.2.1v.2h-.2v.2l-.1-.3-.3.1.1-.2-.2-.1h.2zm2 2.6s.2-.1.2-.3a.2.2 0 00-.3-.2.2.2 0 00-.2.2c0 .2 0 .3.2.3z"/><path d="M40.8 16.8l.2.1.1-.2.1.2h.2v.2h.2l-.3.1.1.2h-.2v.2l-.2-.2h-.2v-.2h-.1l.2-.1zm.8 3.2c.2 0 .3-.2.3-.3 0-.1-.1-.2-.3-.2l-.2.2.2.3z"/><path d="M41.3 19.4h.2l.1-.1.1.2.3-.1-.1.2.2.1-.2.1v.2h-.2v.2l-.2-.3-.2.1.1-.2-.2-.1h.2zm-.3.5c0 .4 0 .8-.5 1-.1-.5.1-.8.5-1zm3-1c-.5 0-.8-.3-.8-.7.5 0 .7.3.7.7zM40 17.3c-.4 0-.7-.2-.7-.7.5 0 .7.3.7.7zm3.2-4.3c-.4 0-.6-.3-.7-.7.4 0 .7.2.7.7zm-2.5 2.2c-.4 0-.7-.3-.8-.7.5 0 .7.2.8.7zm1.3-4.8c-.5 0-.7-.2-.8-.7.4 0 .7.3.8.7zm3.7 5.6c-.4 0-.7-.2-.8-.7.5 0 .7.3.8.7zm-4.4-3c0 .3 0 .7-.5.8-.1-.4.1-.7.5-.9zm.5 2.5c0 .4 0 .7-.4.9-.2-.5 0-.7.4-1zM40 19c-.4 0-.6-.3-.7-.7.4 0 .7.2.7.7zm3 2.8c0-.5.5-1 1-1 .6 0 1 .5 1 1s-.4 1-1 1a1 1 0 01-1-1zm1.8 0a.8.8 0 00-.8-.7c-.4 0-.8.3-.8.7 0 .5.4.8.8.8a.8.8 0 00.8-.8zm-.3.5h-.2L44 22h-.2v.4h-.2v-1h.8l.1.3c0 .2 0 .3-.3.3l.3.4zm-.4-.5c.1 0 .3 0 .3-.2l-.3-.1h-.3v.3h.3zm25 20.5l-1.6 1c0-.2.1-.2.2-.3.2-.2.3-.5.3-.8 0-.4-.3-.7-.5-1 .1-.1.4-.4.4-.6 0-.1 0-.2-.2-.2-.3 0-.4.4-.4.6v.2c-.4.7-1.2 1.2-1.4 1.4 0 0-.3.4-.3.7 0 .3 0 .5.5.5.3 0 .8-.1 1.2-.4.9-.3 1.8-1 1.8-1zM66 43.7c-.3 0-.3-.2-.3-.4 0-.3 0-.4.2-.5.2-.2 1-.8 1.5-1.5l.2.6c.1.9-1.1 1.8-1.6 1.8zm-7.5-1.4l-1.6.9.2-.3a1.2 1.2 0 00.4-.8c0-.4-.4-.6-.6-.9l.4-.7-.1-.1c-.3 0-.5.3-.5.6v.2c-.3.6-1.2 1.2-1.4 1.4 0 0-.3.3-.3.6s0 .6.5.6l1.2-.4c1-.3 1.8-1 1.8-1zm-3.1 1.4c-.3 0-.3-.2-.3-.5a1 1 0 01.3-.5c.1-.2 1-.8 1.4-1.5 0 0 .3.4.3.7 0 .8-1.2 1.7-1.7 1.8zm-26.2-1.4c-.1.1-.8.6-1.6.9l.2-.3c.3-.2.4-.4.4-.8s-.4-.6-.6-.9c.1-.1.4-.4.4-.7a.1.1 0 00-.1-.1c-.3 0-.4.3-.4.6v.2c-.4.6-1.2 1.2-1.4 1.4a1 1 0 00-.4.6c0 .3 0 .6.5.6a2.1 2.1 0 001.2-.4c1-.3 1.8-1 1.8-1zm-3 1.4c-.4 0-.4-.2-.4-.5 0-.2.2-.4.3-.5l1.5-1.4.2.6c0 .8-1.1 1.7-1.7 1.8z"/></g></g></svg>