<svg width="77" height="46" xmlns="http://www.w3.org/2000/svg"><g fill="none" fill-rule="evenodd"><path fill-opacity=".01" fill="#F2F1F0" d="M0 0h77v46H0z"/><path d="M18.5 41.9v-1.5H17V42h-.6v-3.3h.6v1.3h1.5v-1.3h.6v3.3m2.2-2.9c-.6 0-1 .5-1 1.2s.4 1.2 1 1.2c.7 0 1-.5 1-1.2s-.4-1.2-1-1.2m0 3c-.8 0-1.5-.7-1.5-1.8 0-1 .7-1.7 1.5-1.7.9 0 1.6.6 1.6 1.7 0 1-.7 1.7-1.6 1.7m3.5-2.8v2.8h-.6V39h-1v-.5h2.6v.5m.7 2.8v-3.3h2v.5h-1.4v.8h1.2v.5h-1.2v1h1.5v.5m.8 0v-3.3h.6v2.8h1.2l.1.5m1.6 0a3 3 0 01-1.2-.3l.1-.5c.3.2.8.3 1.1.3.4 0 .6-.2.6-.4 0-.3-.1-.4-.6-.6-.7-.2-1-.4-1-1 0-.5.4-.9 1-.9l1 .2v.6a1.8 1.8 0 00-1-.3c-.3 0-.5.2-.5.4s.2.3.7.5c.7.3 1 .5 1 1 0 .6-.5 1-1.2 1m4.3-1.6c-.3.2-.5.4-.5.7 0 .3.2.5.6.5a1 1 0 00.7-.3l-.8-.9zm1.5 1.6l-.4-.4a1.4 1.4 0 01-1 .4c-.8 0-1.1-.3-1.1-.9 0-.4.3-.7.7-1-.2-.2-.3-.4-.3-.7 0-.4.3-.8.9-.8l.8.2v.5l-.8-.2c-.3 0-.4.1-.4.3l.3.6.9.8a2.3 2.3 0 00.1-.8l.5.1c0 .4-.1.8-.3 1l.7.8h-.6zm3.7-2.8H42v1h.4c.5 0 .7-.2.7-.5 0-.4-.2-.5-.7-.5zm1 2.8l-1-1.3H42v1.2h-.6v-3.2h1c.8 0 1.3.3 1.3 1 0 .4-.3.8-.7.9l.9 1.2-.6.2zm1.2 0v-3.3h2v.5h-1.4v.8h1.1l.1.5h-1.2v1h1.5v.5m1.8 0a3 3 0 01-1.2-.3l.1-.5c.3.2.7.3 1 .3.5 0 .7-.2.7-.4 0-.3-.2-.4-.6-.6-.7-.2-1-.4-1-1 0-.5.4-.9 1-.9l1 .2v.6a1.8 1.8 0 00-1-.3c-.3 0-.5.2-.5.4s.2.3.7.5c.7.3 1 .5 1 1 0 .6-.5 1-1.2 1m3.2-2.9c-.6 0-1 .5-1 1.2s.4 1.2 1 1.2c.7 0 1-.5 1-1.2s-.4-1.2-1-1.2m0 3c-.8 0-1.5-.7-1.5-1.8 0-1 .7-1.7 1.6-1.7.8 0 1.5.6 1.5 1.7 0 1-.7 1.7-1.5 1.7m3.2-2.8h-.4v1h.4c.5 0 .7-.2.7-.5 0-.4-.2-.5-.7-.5zm1 2.8l-1-1.3h-.4v1.2H54v-3.2h1c.8 0 1.3.3 1.3 1 0 .4-.3.8-.7.9l1 1.2-.7.2zm2.4-2.8v2.8h-.6V39h-1v-.5h2.6v.5m1.5 2.8a2.8 2.8 0 01-1-.3v-.5c.3.2.7.3 1 .3.5 0 .7-.2.7-.4 0-.3-.2-.4-.6-.6-.7-.2-1-.4-1-1 0-.5.4-.9 1-.9l1 .2-.1.6a1.8 1.8 0 00-.9-.3c-.3 0-.5.2-.5.4s.1.3.6.5c.7.3 1 .5 1 1 0 .6-.4 1-1.2 1M38.6 2c-5.9 0-10.2 3.7-10.2 7.7 0 2 1.2 3.8 2.6 5l.1-.1a5.8 5.8 0 01-2.2-4.5c.4-4.4 5.7-6.8 10.5-6.8 3.4 0 9.4.8 9.4 6.4 0 3-3.1 6.8-9.7 6.8-3.4 0-6-1.8-6-4.4 0-2.3 1.7-3.9 4.3-3.9.8 0 1.4.2 2 .3-1.1-.2-2.8.1-3.7.8v3.8h3.2V9c.6 0 1.1.3 1.4.5v3.8h.9c-.7.8-2 1.2-3 1v.2c3 .2 4.4-1.2 4.4-2.9 0-1.9-1.8-3-3.7-3.3V5.4h-3.2v2.9c-2 .4-4.1 1.6-4.1 3.7 0 3.2 4.4 5.1 8.2 5.1 5.9 0 10.4-2.8 10.4-6.8 0-4.8-6.5-8.2-11.6-8.2m4.4 9.5c0-1.4-1-2.5-2.7-3V5.4h3.3v7.8h-1a2.7 2.7 0 00.4-1.6M24.5 21.8v11.3h.9v.7H21v-.6l1-.1V28h-5.6v5l.9.2v.6H13v-.6l.9-.1V21.8l-.9-.1v-.6h4.3v.6l-.9.1v4.8H22v-4.8l-1-.1v-.6h4.4v.6m5.1.2c0 .8-.6 1.5-1.4 1.5-.8 0-1.3-.6-1.3-1.5 0-.8.5-1.4 1.3-1.4s1.4.6 1.4 1.4zM30.2 33l.8.2v.5h-4v-.5l.9-.2v-7.7H27v-.7h3.1v8.4zm2.6.2l.8-.2V21.4l-.8-.1v-.6h3.1V33l.8.2v.5h-4m8.8-9h2.2v.8h-2.2V31c0 1.4.3 1.9 1.6 1.9l1.2-.1v.6c-1.1.4-2 .6-2.9.6-1.8 0-2.2-.9-2.2-2.5v-5.9h-1.7v-.9h1.7v-1.9l2.3-.7m10.2 7.2c0-2.9-.8-4.1-2.2-4.1-1.4 0-2.2 1.2-2.2 4.1 0 2.9.9 4.1 2.2 4.1 1.4 0 2.2-1.1 2.2-4m2.6 0c0 2.8-1.9 4.7-4.9 4.7-2.9 0-4.7-1.2-4.7-4.7 0-3 1.9-5 4.9-5 3 0 4.7 1.9 4.7 5m11 3.9v.5h-4v-.5l.9-.2V28c0-1.5-.6-2.1-1.6-2.1a4 4 0 00-2 .7v6.5l.9.1v.6h-4v-.6h.8v-7.7l-.8-.1v-.7h3.2V26c1-.8 2-1.4 3.3-1.4 1.7 0 2.5 1 2.5 3v5.5M49.5 16h-.3v-.1h.7-.3V17h-.1v-1zm1.2.8l.4-1h.2V17h-.1V16l-.4 1h-.1l-.4-1v1h-.1v-1.2h.2l.3 1z" fill="#1E4A6E"/></g></svg>