<svg width="77" height="46" xmlns="http://www.w3.org/2000/svg"><defs><linearGradient x1="-.119%" y1=".119%" x2="100.12%" y2="99.882%" id="a"><stop stop-color="#BED38B" offset="0%"/><stop stop-color="#00813F" offset="100%"/></linearGradient><linearGradient x1="-.121%" y1=".121%" x2="100.122%" y2="99.88%" id="b"><stop stop-color="#91BB3E" offset="0%"/><stop stop-color="#47A043" offset="100%"/></linearGradient><linearGradient x1="57.058%" y1="66.7%" x2="45.749%" y2="25.771%" id="c"><stop stop-color="#FFF" offset="0%"/><stop stop-color="#FDFEFC" offset="32.97%"/><stop stop-color="#F7FAF4" offset="52.52%"/><stop stop-color="#ECF4E6" offset="68.58%"/><stop stop-color="#DDEBD2" offset="82.73%"/><stop stop-color="#CADFB8" offset="95.51%"/><stop stop-color="#C2DAAD" offset="100%"/></linearGradient></defs><g fill="none" fill-rule="evenodd"><path fill-opacity=".01" fill="#F2F1F0" d="M0 0h77v46H0z"/><path d="M25.3 0H0v25.5h25.4V0h-.2zm0 25.2H.3V.2h25v25z" fill="url(#a)" transform="translate(25.077 2)"/><path fill="url(#b)" d="M.3.3h25v25H.3z" transform="translate(25.077 2)"/><path d="M30.7 16h1v-.5l-1 .5z" fill="#4BAA42"/><path d="M30.7 16l-2.6 1.5a1 1 0 010-.2v.3l3.3-.1.3-1.6-1 .1zm4.5-.9l.4-1.4-1.1.5a55 55 0 00-1.4 8.5s-.5.4-1.5 0h-.1c-.2 1.4.8 2 .8 2 .8.5 1.5.2 1.5.2.2-3 .6-5.5 1-8 1-.1 2.1-.5 3-.7l.5-2-3 .9zm1.1-3.6l1.5-4.2a2.7 2.7 0 00-1.2 0 56.6 56.6 0 00-1.5 4.7l1.2-.5zm7.5-2.3l1-2.8a5.7 5.7 0 00-1.5 0l-1 3.1a45 45 0 011.5-.3zm-1.1 3l.3-.9-1.4.4c-1 3.7-2.1 8.5-2.6 13.7 0 0-.7.3-1.5 0l-.1 1.8h2.5c.4-5.1 1-8.7 2-12.4 3.7-1.1 7.8-3.8 8.7-4.4a31.1 31.1 0 00-4.5.3l-3.4 1.6z" fill="#008743"/><path d="M43.8 9.2l-1.5.3 1-3 1-2.7a2.5 2.5 0 00-2 0c-1.3.7-2 3.5-2 3.5a79.6 79.6 0 00-1 3 46.2 46.2 0 00-4.2 1.7 56.6 56.6 0 011.5-4.7l.9-2C37.2 4.8 36 5 36 5c-1 .1-1.6 1.5-1.6 1.5a46.2 46.2 0 00-2.3 7l-1 .5s-1.6.8-3 2c0 0-.6.6-.2 1.3l.1.2 2.6-1.5 1-.5a54.8 54.8 0 00-.3 2 32 32 0 00-.3 2.4c-.3 2 .2 2.6.4 2.7h.1c1 .5 1.5.1 1.5.1a54.9 54.9 0 011.4-8.5 54 54 0 014.2-1.6 80.6 80.6 0 00-.9 3.6l-1 5.5c-.5 2.7 0 3.2 0 3.2l.7.5c.8.3 1.5 0 1.5 0 .5-5.2 1.6-10 2.6-13.7l1.4-.4a40.6 40.6 0 013.1-.6 31.2 31.2 0 014.5-.4v-2s-2.7 0-6.8.9z" fill="#FFF"/><path d="M20.2 7.1l2.6-.1V5h-1.3C6.5 8.2.4 14.2.4 14.2l3.6-2a43.1 43.1 0 00-.7 4c.8 0 1.6-.2 2.5-.5l1-4.7a54.7 54.7 0 014.1-1.7 83 83 0 00-1 4.6 55.2 55.2 0 003-1.7 82 82 0 011-3.7c2-.6 4-1 6.3-1.3z" fill="url(#c)" transform="translate(27.77 3.342)"/><path d="M42.2 23.7h-.3.6-.2v.7h-.1zm1 .4v-.4.3l-.2.4-.2-.4a3.7 3.7 0 010-.3v.4l-.1.3h-.1v-.8h.2l.1.4v.3l.2-.3.1-.4h.2v.8h-.1v-.3z" fill="#FFF"/><path d="M12.5 30.9l-1 4.8c-.6.3-1.6.7-1.3 1.5l1.1-.4s-.4 1.6-.4 2.5c0 .5.1 1.1 1.3 1l.8-4 3-.6-.3 1.7c-.2.7-.5 1.7-.4 2.2.2.5.5.8 1.4.7l2-9.4H17l-.7 3.5-3 .6.9-4.1h-1.7zm13.2 1.4l-1.2 5.5s-.3 1-.3 1.7c.1.9.9 1 1.4.9l1.7-8h-1.6zm27-1.4l-1.4 6.9s-.3 1-.3 1.7c.1.9.9 1 1.4.9l2-9.5h-1.6zm-24.3 3.4l-.7 3.5s-.3 1-.3 1.7c0 .9.8 1 1.3.9l1.3-6h-1.6zM66 38.1c.3-1.1.6-2.2.4-2.8-.6-1.5-2.7-1.3-3.6-.3l-.1-.7h-1.3v1l-1 5h1.5c.3-1.2.7-3.5 1.1-4.3.4-.6 1.5-1 1.8 0 .1.3-.4 1.7-.5 2.7-.1.9-.2 1.6 1.3 1.6l.4-2.2zm-6.5 0c.3-1.1.6-2.2.4-2.8-.6-1.5-2.7-1.3-3.7-.3v-.7h-1.3l-.1 1a78 78 0 01-1 5h1.6c.3-1.2.6-3.5 1.1-4.3.3-.6 1.5-1 1.8 0 .1.3-.4 1.7-.5 2.7-.2.9-.3 1.6 1.2 1.6l.5-2.2zm-11.7-3.7s-.7 3.5-1 3.9c-.3.7-.8 1-1.4.8-.7-.1-.3-1.4-.3-1.4l.6-3.3h-1.5l-.7 3c-.3 1.4-.2 2 .2 2.4-.9.2-1.3.5-1.4 1.3 0 1 1 1.8 2.3 1.8 2.8 0 3.6-2 4-4.4l.8-4.1h-1.6zm-3.2 7.5c-.4 0-1-.3-1-.8.2-1 2-.5 3-1.3 0 .7-.6 2.2-2 2.1zm-10.7-2.2c.2.5.6.7 1.3.6l2-9.1h-1.7l-.7 3c-2.7-.2-4.6 1.7-4.6 4.1 0 2.1 2.3 2.7 3.7 1.4zm.7-4.3l-.5 2.2c-.2 1.2-.8 1.9-1.7 1.6-1.3-.5 0-4.5 2.2-3.8zm5.7 4.3c.1.4.6.7 1.3.6l1-5.4c-.3-.5-1.4-.6-1.4-.6a4 4 0 00-4.6 4c0 2.1 2.3 2.7 3.7 1.4zM38.4 37c.4-1 1.3-2 2.6-1.7l-.5 2.2c-.2 1.2-.8 1.9-1.7 1.6-.7-.2-.7-1.2-.4-2zm-17.3-2.8a3.3 3.3 0 00-2.3 1.5c-.6.8-1 2.2-.6 3.2.3 1 1.3 1.4 2.2 1.4 1.2 0 2.4-.8 3-1.7.2-.4.8-1.7.6-2.8-.3-1.2-1.3-1.8-2.9-1.6zm1 3.5c-.2.6-.6 1.2-1 1.4-.4.2-1.1.2-1.4-.5a3.6 3.6 0 01.2-1.8c.3-.8.9-1.6 1.5-1.6.4 0 .8.3.9.7.1.3 0 1-.2 1.8zm8.1-5.7c.4.3.3.8-.1 1.2-.4.4-1 .5-1.3.2-.3-.3-.2-1 .2-1.3.3-.4 1-.5 1.2-.1z" fill="#00733D"/><path d="M12.4 30.8l-1 4.7c-.7.3-1.6.7-1.4 1.6l1.2-.4s-.5 1.6-.5 2.5c0 .4.2 1 1.4 1l.8-4 3-.6-.4 1.6c-.1.8-.4 1.8-.3 2.3.2.5.4.7 1.4.7l2-9.4h-1.7l-.8 3.4-2.9.6.9-4h-1.7zm13.2 1.4l-1.2 5.5s-.3 1-.3 1.6c.1 1 .8 1 1.4 1l1.6-8.1h-1.6zm27-1.4l-1.4 6.9s-.3 1-.3 1.6c0 1 .9 1 1.4 1l2-9.5h-1.7zm-24.4 3.4l-.7 3.5s-.3 1-.3 1.6c.1 1 .9 1 1.4 1l1.2-6h-1.6zM66 38c.3-1.2.6-2.2.4-2.9-.6-1.4-2.7-1.3-3.7-.3v-.6h-1.3l-.1 1c-.1 1-.6 3.2-1 4.9h1.6c.3-1 .6-3.4 1.1-4.3.3-.5 1.5-.9 1.8 0 .1.3-.4 1.8-.5 2.8-.2.8-.3 1.6 1.2 1.6L66 38zm-6.5 0c.2-1.2.6-2.2.3-2.9-.6-1.4-2.7-1.3-3.6-.3v-.6h-1.3l-.1 1a78 78 0 01-1 4.9h1.5c.3-1 .7-3.4 1.2-4.3.3-.5 1.4-.9 1.7 0 .2.3-.3 1.8-.5 2.8 0 .8-.2 1.6 1.3 1.6l.5-2.2zm-11.8-3.8s-.6 3.5-.9 4c-.3.7-.8.9-1.5.8-.6-.2-.3-1.4-.3-1.4l.7-3.4H44l-.6 3c-.4 1.5-.3 2 .1 2.4-.8.2-1.3.6-1.3 1.3-.1 1.2 1 1.8 2.2 1.8 2.9 0 3.6-1.8 4-4.4l.9-4h-1.7zm-3.1 7.6c-.4 0-1-.3-1-.8.1-1 2-.5 3-1.3 0 .7-.6 2.2-2 2zm-10.7-2.2c.2.4.6.6 1.3.6l2-9.2h-1.7l-.7 3.1c-2.7-.2-4.6 1.6-4.6 4 0 2.2 2.3 2.7 3.7 1.5zm.7-4.4l-.5 2.2c-.2 1.2-.8 2-1.7 1.6-1.4-.4-.1-4.4 2.2-3.8zm5.6 4.3c.2.5.7.7 1.3.7l1.1-5.5c-.3-.4-1.4-.5-1.4-.5a4 4 0 00-4.7 4c0 2 2.4 2.7 3.7 1.3zM38.3 37c.4-1.1 1.3-2.1 2.5-1.8l-.4 2.2c-.2 1.2-.8 2-1.7 1.7-.7-.2-.7-1.2-.4-2.1zM21 34a3.3 3.3 0 00-2.4 1.5c-.5.9-.9 2.2-.6 3.3.3 1 1.3 1.4 2.2 1.4 1.3 0 2.5-.8 3-1.7.3-.5.9-1.8.6-2.8-.2-1.2-1.2-1.9-2.8-1.7zm1 3.5c-.3.7-.6 1.2-1 1.4-.4.2-1.2.2-1.4-.5a3.6 3.6 0 01.2-1.8c.3-.7.8-1.5 1.5-1.5.4 0 .8.2.9.6 0 .4 0 1.1-.2 1.8zM30 32c.3.3.3 1-.1 1.3-.4.4-1 .5-1.3.1-.3-.3-.3-.9.1-1.2.4-.4 1-.5 1.3-.2z" fill="#4BAA42"/><path d="M67.7 34.4a.7.7 0 110 1.4.7.7 0 01-.8-.7.7.7 0 01.8-.7zm0 .2c-.4 0-.6.2-.6.5s.2.5.6.5c.3 0 .5-.2.5-.5a.5.5 0 00-.5-.5zm-.2.8h-.1v-.6h.5v.6l-.1-.1-.2-.1v.2zm0-.3h.1l.2-.1-.2-.1v.2z" fill="#4DAA47"/></g></svg>