<svg width="77" height="46" xmlns="http://www.w3.org/2000/svg"><g fill="none" fill-rule="evenodd"><path fill-opacity=".01" fill="#F2F1F0" d="M0 0h77v46H0z"/><path d="M65.6 28.7c-.8-.4-1-1.6-1-4.4v-4.4h-1.4l.3-.8h1.2v-2l2.8-1v3h1.3l-.4.8h-1v7.6c.1.6.3 1 .6 1.2h-2.4zm-41.2 6.9c0-.3-.2-.4-.5-.4-.4 0-.5.2-.5.4 0 .7 1.4.6 1.4 1.6 0 .6-.5 1-1.2 1-.3 0-.6 0-.8-.2l.2-.6c.1.4.4.6.7.6.3 0 .5-.2.5-.5 0-.8-1.3-.5-1.3-1.6 0-.5.3-1 1-1 .4 0 .7.1.7.2l-.1.5zM38.2 10c.2.6.7 1.2.3 1.8-.1.7-.8 1.3-1.4 1.4-.8 0-1.4 0-2-.5-.3-2 .5-3.8 2-4.9l1.1 2.2zm2.8 6c-.4 1.2-4 .4-5-1.5 1.4.1 3-1.2 3-2.6l2 4.1zm1.4-.1c.2-.1.5-.3.6-.6L39.2 7c-.3 0-.5 0-.8.2l4 8.7zm1.7-1.8c1.6-2.5.3-6.5-3.2-7l3.2 7zm-37 18.6h61.1v-.5h-61v.4zM27 36.5a.3.3 0 00-.3-.3.3.3 0 00-.3.3c0 .2.1.3.3.3a.3.3 0 00.3-.3zm16.9-17c.5-.5 1.4-.5 2-.2l.6.5-1.1 1.7-.5-.2c-.5-.3-1.1-.1-1.4.2v5c0 1 .1 1.8.6 2.2h-2.6c-.5-.4-.7-1-.7-1.7v-6.7c0-.6-.1-.8-.4-1.1H43c.2.1.2.4.3.6l.5-.4zM47 21c0-.6.1-1.4-.3-2H49l.3.6c.2.1.2.4.2.6v7.2c.1.4.3.9.6 1.2h-2.6c-.8-.8-.6-2.2-.6-3.6v-4zm3.9 0c.2-.6 1-1 1.7-1.4.9-.3 1.9-1.2 3-.5.8.6 1.5 1.2 2 2l.4 1.1v2.9c0 .8-.4 1.6-1 2.2-1.1 1-2.4 2-3.8 1.2-1.2-.6-2.7-1.7-2.6-3.3 0-1.1-.1-2 0-3.2l.3-1zm2.5 5.2c.1.4.4 1 1 1l.7-.4c.5-1.1.4-2.4.4-3.6-.1-1 0-2.3-1-2.9-.3-.1-.6.1-.8.4-.4.6-.4 1.3-.5 2-.1 1.2 0 2.3.2 3.5zm6.5 2.4c-.8-.4-1-1.6-1-4.4v-4.4h-1.4l.3-.8H59v-2l2.8-1v3H63l-.3.8h-1v7.6c.1.6.3 1 .6 1.2H60zm-25.5-8.4c0-.6-.1-.8-.3-1.1h2.6c.2.1.2.4.3.6l.5-.4c.5-.4 1.4-.4 2-.1l.6.5-1.1 1.7-.4-.2c-.6-.3-1.2-.1-1.5.2v5c0 1 .1 1.8.6 2.2H35c-.5-.4-.6-1-.7-1.7v-6.7zm-20 2.6l-1 2c-.6 1.2-1.5 2.6-3 3-.5.2-1 0-1.5 0l-1.7 2.7.5.4c3 1.1 4.2-.1 7.1-6.8l2.8 6h3.7l-1.7-4 1-2.1 2.7 6H27l-6.2-13.7-3 1.4L20 23l-1 2-4-8.8-3 1.5 2.4 5.3zm11.4 2.5a3 3 0 011.6-2.5c.9-.5 2-.7 2.9-1.2.1-.2.3-.3.3-.5a.5.5 0 00-.3-.6c-1.5-.3-2.6.6-3.7 1.5.2-.7.3-1.4.6-2l.4-.5c1-.5 2.3-.7 3.4-.6 1 0 1.8.7 2.1 1.6.2.4.2.8.2 1.2v5.6c0 .5.3.9.5 1.3h-2.6c-.3-.3-.5-.7-.6-1.1-.7.7-2.2 1.6-3.2 1-1-.4-1.8-1.9-1.6-3.2zm4.7-2c0-.4-.3-.4-.5-.4-.6.1-1.2.6-1.5 1.2a2.8 2.8 0 00-.3 1.3l.1 1.1c.1.3.4.4.6.4.4.1.8 0 1-.2.8-.4.7-1.3.7-2l-.1-1.4zM51 36.5a.3.3 0 00-.4-.3.3.3 0 00-.3.3c0 .2.1.3.3.3a.3.3 0 00.4-.3zM28.8 35h1.8c.2.2.4.4.4.8s-.3.7-.8.8l.9 1.3.1.3h-.8l-.6-1-.3-.5v1.5h-.7V35zm.7 1.5c.5 0 .8-.2.8-.7v-.2c-.2-.4-.5-.4-.8-.4v1.3zm4.2-1.5a.8.8 0 000 .2v.2h-1v1h.4l.6-.1a.8.8 0 000 .2v.2a4.5 4.5 0 00-.6 0h-.5v1.1a8.7 8.7 0 001.1 0 .8.8 0 000 .2v.1h-1.8V35h1.8zm2.2.6c0-.2-.2-.4-.5-.4s-.5.2-.5.4c0 .7 1.4.6 1.4 1.6 0 .6-.5 1-1.2 1-.3 0-.5 0-.8-.2l.2-.6c.1.4.4.6.7.6.3 0 .5-.2.5-.5 0-.8-1.3-.5-1.3-1.6 0-.5.3-1 1-1l.8.2-.2.5zm2.7 2.6c-1 0-1.7-.6-1.7-1.6s.6-1.7 1.8-1.7c1.3 0 1.7 1 1.7 1.7 0 .9-.7 1.6-1.8 1.6zm-1-1.5c0 .6.3 1.3 1 1.3s1-.8 1-1.5c0-.6-.2-1.3-1-1.3-.6 0-1 .5-1 1.5zm3.6-1.7h1.7c.3.2.4.4.4.8s-.3.7-.7.8l.8 1.3.2.3h-.8l-.6-1-.3-.5v1.5h-.4-.3V35zm.7 1.5c.5 0 .7-.2.7-.7v-.2c0-.4-.4-.4-.7-.4v1.3zm3.7 1.7h-.4-.3v-2.9H44v-.1-.2h2.4v.4a6.6 6.6 0 00-.8 0v2.8zm3-2.6c-.1-.2-.3-.4-.6-.4s-.5.2-.5.4c0 .7 1.4.6 1.4 1.6 0 .6-.5 1-1.2 1-.3 0-.5 0-.7-.2v-.6h.2c0 .4.3.6.6.6s.5-.2.5-.5c0-.8-1.3-.5-1.3-1.6 0-.5.3-1 1-1l.8.2-.2.5zm5.6 0c0-.2-.2-.4-.5-.4-.4 0-.5.2-.5.4 0 .7 1.4.6 1.4 1.6 0 .6-.5 1-1.2 1-.3 0-.6 0-.8-.2a6.7 6.7 0 00.2-.6c.1.4.4.6.7.6.3 0 .5-.2.5-.5 0-.8-1.4-.5-1.4-1.6 0-.5.4-1 1.1-1l.7.2-.1.5zm1.2-.6h.7v2.2c0 .2.1.4.3.5a.8.8 0 00.5.2c.4 0 .7-.1.8-.5l.1-1V35h.4v1.6c0 .6 0 1-.5 1.4-.3.2-.6.2-.9.2-.5 0-1.1-.1-1.3-.7a2 2 0 010-.6V35zm3.9 0h.7v3.2h-.4-.3V35zm3 3.2h-.7v-2.9h-.8v-.1-.2H63a.8.8 0 000 .2.8.8 0 000 .2h-.8v2.8zm3.3-3.2v.4a6.4 6.4 0 00-1 0v1h.4l.6-.1v.4a4.5 4.5 0 00-.6 0h-.4v1.1a8.5 8.5 0 001 0V38H64V35h1.7zm2.3.6c-.1-.2-.3-.4-.6-.4s-.5.2-.5.4c0 .7 1.4.6 1.4 1.6 0 .6-.5 1-1.2 1-.2 0-.5 0-.7-.2l.1-.6c.2.4.4.6.7.6.3 0 .6-.2.6-.5 0-.8-1.4-.5-1.4-1.6 0-.5.4-1 1-1l.8.2-.2.5zM7.2 35H8v1.3h1.5V35h.7v3.2h-.7v-1.6H7.9v1.6h-.7V35zm5.4 3.2c-1 0-1.7-.6-1.7-1.6s.6-1.7 1.8-1.7c1.3 0 1.7 1 1.7 1.7 0 .9-.7 1.6-1.8 1.6zm-1-1.5c0 .6.3 1.3 1 1.3s1-.8 1-1.5c0-.6-.2-1.3-1-1.3-.6 0-1 .5-1 1.5zm4.5 1.5h-.7v-2.9h-.8v-.1-.2h2.3v.4a6.6 6.6 0 00-.8 0v2.8zm3.3-3.2v.4a6.4 6.4 0 00-1 0v1h.4l.6-.1v.4a4.2 4.2 0 00-.6 0h-.5v1.1a8.5 8.5 0 001.1 0V38h-1.8V35h1.8zm1.6 2.8h1a.8.8 0 000 .2v.1h-1.7V35h.7v2.8zm47.3-10c0-.5.5-1 1-1a1 1 0 110 2 1 1 0 01-1-1zm1 .9c.5 0 .9-.4.9-.8a.8.8 0 00-.9-.9.8.8 0 00-.8.9c0 .4.4.8.8.8zm-.2-.3H69v-1.1h.4c.3 0 .4.1.4.3 0 .2-.1.3-.3.3l.3.5h-.2l-.3-.5h-.2v.5zm.3-.6s.2 0 .2-.2c0-.1 0-.2-.2-.2H69v.4h.3z" fill="#C6003D"/></g></svg>