<svg width="77" height="46" xmlns="http://www.w3.org/2000/svg"><g fill="none" fill-rule="evenodd"><path fill-opacity=".01" fill="#F2F1F0" d="M0 0h77v46H0z"/><path d="M62.2 38.3l-.1-.2a7.6 7.6 0 01-1.2 0 9.5 9.5 0 01-4.7-2.6 21.2 21.2 0 01-1-1.2c-2.6-3.1-4.4-10.5-1-20.8h-.7a10.4 10.4 0 00-7.3 3c-2.2 2-3.8 4.5-4.8 6.4l-.6.1c.2-1.3.4-2.9.4-4.4 0-2-.3-3.7-1.1-4.8-.7-.9-2-1-3.6-.4-3.5 1.6-7.1 5.5-9.8 10.4a14.8 14.8 0 000-1.9c0-5-2.4-9.7-6.6-12.5-3.5-2.3-6-2.2-6.1-2.2v.2c.5 0 4.6.7 7.4 5.2 1.3 2.2 2 5 2 8.5 0 4.2-1 9.3-2.7 14.5h3.7A53.5 53.5 0 0132.9 18c1.4-1.8 3.6-3.6 4.6-3.5.2 0 .3.2.5.4 1.1 1.8-.1 10.2-3.1 20.8h3.6s.6-3.1 2-7c.8-1.9 2.8-6.2 5.3-9 2.3-2.4 3.8-3 4-3.1a34 34 0 00-.8 7.3c0 2.1.3 4.5 1 6.6a12.6 12.6 0 0011.4 8h1z" fill="#DFDBCF"/><path d="M47.7 22.5v4.7c0 .8.3 1.6 1.6 1.6 1.6 0 2.2-1.4 2.2-2.6v-3.7h1.8v7h-1.6v-1.2c-.7 1-1.7 1.4-3 1.4-1.6 0-2.8-.8-2.8-2.3v-5h1.8zm-11.3 0l-1-.2c-.6 0-1.8.4-2.5 2v-1.8h-1.7v7H33v-3c0-2 .8-2.9 2.3-2.8 1.1 0 1-.8 1-1.2m24.8 0l-1-.2c-.6 0-1.8.4-2.5 2v-1.8h-1.7v7h1.9v-3c0-2 .8-2.9 2.3-2.8 1 0 1-.8 1-1.2M39 26c0-2.1 1.5-2.8 2.8-2.8l1 .1c.4 0 .9-.1 1.2-.5-1.2-.4-2.1-.5-2.4-.5-2 0-4.7 1-4.7 3.8 0 2.3 2 3.6 4.4 3.6 1.1 0 2.2-.2 3.3-.8a1 1 0 00-1.3-.3c-.5.1-1 .3-1.7.3-1 0-2.6-.5-2.6-2.9zm-25.6 3.5h.4L17 23v6.5h1.8v-8.8h-2.2L13.5 27l-3.3-6H8v8.7h1.8V23l3.2 6.4h.5M25.3 23c1.2 0 1.8.6 1.8 2h-3.9c.2-1.4 1-2 2.1-2zm3.6 2.7v-.4c0-1-.4-3-3.5-3-2.8 0-4.2 1.8-4.2 3.6 0 2.3 2 3.7 4.3 3.7 1 0 2.1-.2 3.3-.8a1 1 0 00-.9-.4 1.5 1.5 0 00-.4 0c-.5.2-1 .4-1.7.4-1 0-2.7-.5-2.6-3.1H29zM65.8 23c1.1 0 1.8.6 1.8 2h-4c.3-1.4 1.1-2 2.2-2zm3.6 2.7v-.4c0-1-.5-3-3.5-3-2.8 0-4.3 1.8-4.3 3.6 0 2.3 2 3.7 4.3 3.7 1 0 2.2-.2 3.3-.8a1 1 0 00-.8-.4 1.5 1.5 0 00-.4 0c-.6.2-1 .4-1.7.4-1 0-2.8-.5-2.6-3.1h5.7z" fill="#602360"/></g></svg>